<?xml version="1.0" encoding="utf-8"?>
<!-- Generator: Adobe Illustrator 18.0.0, SVG Export Plug-In . SVG Version: 6.00 Build 0)  -->
<!DOCTYPE svg PUBLIC "-//W3C//DTD SVG 1.1//EN" "http://www.w3.org/Graphics/SVG/1.1/DTD/svg11.dtd">
<svg version="1.1" id="Your_Icon" xmlns="http://www.w3.org/2000/svg" xmlns:xlink="http://www.w3.org/1999/xlink" x="0px" y="0px"
	 viewBox="0 0 100 100" enable-background="new 0 0 100 100" xml:space="preserve">
<path fill="#FFFFFF" d="M94.7,53.1c0.5-5.4-7.6-10.6-14.9-13.9c-8.3-3.8-19.1-6.9-29.9-8.9c-1.9-1.1-4.3-1.9-7.1-2.4
	c-3.6-0.6-6.8-0.4-9.6,0.4c-1.2,0-2.3-0.1-3.4-0.1C18.4,28.2,11,30.9,8,35.9C3.3,43.5,4.9,57,9.3,64.3c5.1,8.4,14.3,13.9,26.6,15.9
	c4,0.7,8.1,1,12.2,1c11.1,0,21.7-2.4,29.9-6.7C87.5,69.5,93.9,61.3,94.7,53.1z M90.9,53c0,0.2-0.1,0.4-0.2,0.6
	c-1.5,2.9-10.5,5.7-26,5.7c-7.5,0-15.4-0.7-22.9-1.9c-11-1.8-19.7-4.7-25.3-8.2c-3.2-2.1-7.5-5.5-6.2-9.4c2.1-6.4,8.2-7.4,16-7.8
	c-2.9,2.5-5.7,5.6-4.8,9.2c0.8,3.1,6.5,6.5,16.6,8.2c10.2,1.7,16.5,0.1,18.1-2.8c2.4-4.2,0.8-8-1.5-11.6c8.5,2,16.7,4.6,23.3,7.6
	C88.1,47.3,91.3,51.1,90.9,53z"/>
</svg>
