<?xml version="1.0" encoding="utf-8"?>
<!-- Generator: Adobe Illustrator 18.0.0, SVG Export Plug-In . SVG Version: 6.00 Build 0)  -->
<!DOCTYPE svg PUBLIC "-//W3C//DTD SVG 1.1//EN" "http://www.w3.org/Graphics/SVG/1.1/DTD/svg11.dtd">
<svg version="1.1" id="Layer_1" xmlns="http://www.w3.org/2000/svg" xmlns:xlink="http://www.w3.org/1999/xlink" x="0px" y="0px"
	 viewBox="0 0 100 100" enable-background="new 0 0 100 100" xml:space="preserve">
<path fill="#FFFFFF" d="M44.2,94.9c0,0-2.6-7.8-2.9-10.4C41,81.9,37,82.3,36,82.3c-0.9,0-8.8,1.7-13.2,1.7c-4.3,0-7.8-2-7.3-5.1
	s1.8-7.8,0-8.8c-1.8-1.1-2.4-2.9,0-4c0,0-1.5-0.5-2.6-1.4s-0.2-1.9,0.8-3.3c0.9-1.4,0.5-2.9-4.3-5.3c-4.8-2.3,0.8-6.7,1.7-7.4
	c0.9-0.8,6-5.9,6-11.2s-2.2-16.6,12.1-25.3s31-10.5,48.2,0s20.5,32.6,6.2,47.6c-10.4,12.1-4.8,18,0.5,32.4L44.2,94.9z M68.7,66.5
	c0,0-0.7-6.3,5.8-9.9C81,53,81,47.5,81,47.5s6.3-6.5,1.4-12.1c0,0,0.6-12.1-6-12.1c0,0-2.9-8.4-12.4-6.5c0,0-8.2-6.1-12.5-0.3
	c0,0-8.9-4.1-12.1,2.5c0,0-9.6-1.2-10.6,7.7c0,0-5.5,1.4-6,9.4s7.7,9.9,11.6,9.6c3.9-0.2,5.5-1,5.5-1s3.4,3.1,9.9,1
	c0,0,8.4,2.4,8.4,7.2s0,13.5,0,13.5h4c0,0-0.1-7.7-0.1-11.7s2.8-5.3,4.1-6.5c0.3-0.3,2.7-1.8,3.6-5.5s1-7.2-2.8-8.7
	c-3.8-1.5-7.5-2-8.6-1.1s-2.8,3.8-0.3,8.2l-1.8,1.4c0,0-1.6-2.3-1.8-5c0,0-3.5-0.7-5.5,1.6L47.1,38c0,0,2.1-3.4,7.7-2.9
	c0,0,0.4-2.1,2.1-3.8c0,0-1.2-3.7-4.3-3.1s-1.8,1.1-5.7,1.4c0,0-0.9,4.8-6.5,6.9c0,0-1.9,2.1-6.2,1.4c-3.2-0.3-3.1,2.3-3.1,2.3
	l-2.3-0.6c0,0,0.6-2.6,2.4-3.6s4.9,0.4,7-0.7c0,0-1.2-3.3-4.3-3.5l-0.1-2.3c0,0,4.1-0.2,6.5,4.5c0,0,3.3-0.9,4.5-5.2
	c0,0-1.2-2.1-3.6-3.1l0.7-2.2c0,0,3,0.9,4.6,3.7c0,0,1.7,0,3.5-0.7s3.2-0.5,3.2-0.5s1.3-1.8,1.4-4l2.5,0.4c0,0-0.1,2.1-1.4,4
	c0,0,2.6,1.1,3.3,3.8c0,0,2-0.1,3.6,0.2c0,0-0.5-3.3,2.4-4.9l1.3,2c0,0-1.8,1.5-1.1,3.4c0,0,5.4,0.9,7,5c0,0,2.3,0.1,4.5-2.7l2,1.4
	c0,0-2,2.8-6,3.8c0,0,0.2,3.4-1.2,6.8c0,0,3.8,1.6,4.2,4.8l-2.3,0.7c-1.1-2.9-3.1-3.1-3.1-3.1S67.8,50,66,51.4
	c-1.8,1.4-1.6,4.5-1.6,4.5l-0.1,10.4h4.4V66.5z"/>
</svg>
