<?xml version="1.0" encoding="utf-8"?>
<!-- Generator: Adobe Illustrator 18.0.0, SVG Export Plug-In . SVG Version: 6.00 Build 0)  -->
<!DOCTYPE svg PUBLIC "-//W3C//DTD SVG 1.1//EN" "http://www.w3.org/Graphics/SVG/1.1/DTD/svg11.dtd">
<svg version="1.1" id="Layer_1" xmlns="http://www.w3.org/2000/svg" xmlns:xlink="http://www.w3.org/1999/xlink" x="0px" y="0px"
	 viewBox="0 0 100 100" enable-background="new 0 0 100 100" xml:space="preserve">
<path fill="#FFFFFF" d="M82.4,81.8c-1.6-3.7-21.2-31.6-21.2-31.6L61.4,31c0.2-7.1,3.5-8.7,3.5-8.7H54h-2.4h-11c0,0,3.3,1.7,3.5,8.7
	l0.2,19.2c0,0-19.6,27.9-21.2,31.6c0,0-7,11.8,5,15.1h24.5H53h24.5C89.4,93.6,82.4,81.8,82.4,81.8z M72.4,93.6H52.9h-0.4H33
	c-9.5-2.6-4-12-4-12c1.3-2.9,8.8-13,8.8-13H68c0,0,0.7,0.9,1.6,2.3h-6.8c-0.6,0-1.1,0.5-1.1,1.1s0.5,1.1,1.1,1.1h8.3
	c0.7,1,1.4,2,2.1,3.1h-6.1c-0.6,0-1.1,0.5-1.1,1.1s0.5,1.1,1.1,1.1h7.5c0.8,1.3,1.4,2.4,1.7,3.1h-5.4c-0.6,0-1.1,0.5-1.1,1.1
	c0,0.6,0.5,1.1,1.1,1.1h6.4C78.4,86.7,79,91.8,72.4,93.6z"/>
<circle fill="#FFFFFF" cx="45" cy="13.8" r="6.6"/>
<circle fill="#FFFFFF" cx="29.3" cy="35.4" r="6.6"/>
<circle fill="#FFFFFF" cx="31.5" cy="18.2" r="5.3"/>
</svg>
