<?xml version="1.0" encoding="utf-8"?>
<!-- Generator: Adobe Illustrator 18.0.0, SVG Export Plug-In . SVG Version: 6.00 Build 0)  -->
<!DOCTYPE svg PUBLIC "-//W3C//DTD SVG 1.1//EN" "http://www.w3.org/Graphics/SVG/1.1/DTD/svg11.dtd">
<svg version="1.1" id="Layer_1" xmlns="http://www.w3.org/2000/svg" xmlns:xlink="http://www.w3.org/1999/xlink" x="0px" y="0px"
	 viewBox="0 0 100 100" enable-background="new 0 0 100 100" xml:space="preserve">
<g id="Captions">
	<path fill="#FFFFFF" d="M65.3,84.6c1.2,1.8,1.5,3.3,1.5,3.6c0,0.7-8.5,1.2-19,1.2c-10.5,0-19-0.6-19-1.2c0-0.3,0.2-1.8,1.5-3.6
		c-21.5-9.1-24-34.2-24-36.3c0-2.6,18.6-4.8,41.6-4.8c23,0,41.6,2.1,41.6,4.8C89.3,50.4,86.8,75.5,65.3,84.6z"/>
	<path fill="#FFFFFF" d="M93.6,20.3c-0.6-3.1-2.3-5.8-4.9-7.6c-2-1.4-4.3-2.1-6.7-2.1c-3.9,0-7.6,1.9-9.8,5.1
		c-1.9,2.9-1.8,8.5-3.9,12.6c-0.8,1.7-1.8,3.4-3,4.9c-0.9,1.2-1.8,2.4-2.7,3.6c-0.3,0.4-0.3,0.8-0.1,1.2c0.2,0.4,0.6,0.7,1,0.7
		c5.2,0.2,9.8,0.6,13.9,1.1l0.9,0.1c0,0,0.1,0,0.1,0c0.4,0,0.7-0.2,0.9-0.5c0.6-0.8,1.2-1.5,1.9-2.2c3-3.1,8.6-5.4,10.4-8.1
		C93.5,26.5,94.2,23.4,93.6,20.3z"/>
</g>
<g id="Your_Icon">
</g>
</svg>
