<?xml version="1.0" encoding="utf-8"?>
<!-- Generator: Adobe Illustrator 18.0.0, SVG Export Plug-In . SVG Version: 6.00 Build 0)  -->
<!DOCTYPE svg PUBLIC "-//W3C//DTD SVG 1.1//EN" "http://www.w3.org/Graphics/SVG/1.1/DTD/svg11.dtd">
<svg version="1.1" id="Layer_1" xmlns="http://www.w3.org/2000/svg" xmlns:xlink="http://www.w3.org/1999/xlink" x="0px" y="0px"
	 viewBox="0 0 128 128" enable-background="new 0 0 128 128" xml:space="preserve">
<path fill="#FFFFFF" d="M18,0l3.4,6h85.2l3.4-6H18z M16.1,0.2c-0.5,0.2-1,0.4-1.3,0.7l-4.2,3L53,78.2c2.1-0.9,4.4-1.5,6.7-1.9
	L40.1,42H40L25.9,17.3L16.1,0.2L16.1,0.2z M111.9,0.2l-9.6,16.7c0,0.1-0.1,0.3-0.1,0.4l-33.8,59c2.3,0.4,4.5,1,6.7,1.9l42.4-74.2
	l-4.2-3C112.8,0.7,112.4,0.4,111.9,0.2L111.9,0.2z M7.3,6.2L3.2,9.1c-0.7,0.5-0.9,1.5-0.5,2.2L44.2,84h0.2c1.6-1.5,3.2-2.8,5.1-3.9
	L7.3,6.2L7.3,6.2z M120.7,6.2L78.5,80.1c1.8,1.1,3.5,2.4,5,3.9h0.3l41.5-72.6c0.4-0.7,0.2-1.7-0.5-2.2L120.7,6.2L120.7,6.2z
	 M23.7,10l3.4,6h73.8l3.4-6H23.7L23.7,10z M64,80c-13.3,0-24,10.7-24,24s10.7,24,24,24s24-10.7,24-24S77.3,80,64,80z"/>
</svg>
