<?xml version="1.0" encoding="utf-8"?>
<!-- Generator: Adobe Illustrator 18.0.0, SVG Export Plug-In . SVG Version: 6.00 Build 0)  -->
<!DOCTYPE svg PUBLIC "-//W3C//DTD SVG 1.1//EN" "http://www.w3.org/Graphics/SVG/1.1/DTD/svg11.dtd">
<svg version="1.1" id="Layer_1" xmlns="http://www.w3.org/2000/svg" xmlns:xlink="http://www.w3.org/1999/xlink" x="0px" y="0px"
	 viewBox="0 0 100 100" enable-background="new 0 0 100 100" xml:space="preserve">
<path fill="#FFFFFF" stroke="#FFFFFF" stroke-miterlimit="10" d="M96.5,58.2c-1.7-2.6-5.4-3.2-11-3.4c-3.4-0.1-5.1-0.5-5.8-0.7
	c-0.1-0.1-0.2-0.2-0.3-0.3c0,0,0,0-0.1,0c-0.1-0.2-0.3-0.3-0.5-0.4c-0.1,0-2.9-1.1-6.9-2.7c0-0.4-0.1-0.8-0.5-1
	c-0.5-0.3-1.2-0.2-1.5,0.3c-0.9-0.5-1.9-0.9-2.8-1.3c0.1-0.4-0.1-0.9-0.5-1.1c-0.5-0.3-1.2-0.2-1.6,0.3l0,0
	c-0.9-0.4-1.8-0.7-2.8-1.1c0.2-0.5,0.1-1.1-0.4-1.4c-0.5-0.4-1.2-0.2-1.6,0.3L60,45.9c-1-0.4-2-0.8-2.9-1.1c0.1-0.4-0.1-0.9-0.5-1.2
	c-0.5-0.4-1.2-0.2-1.6,0.3V44c-1-0.4-2-0.8-3-1.2c0-0.4-0.2-0.7-0.5-1C51,41.5,50.4,41.6,50,42c-1.4-0.6-2.5-1-3.2-1.3
	c-4.6-2.1-5.6-2.4-5.8-2.4c-0.5-0.1-1.1,0.1-1.3,0.6l-2.5,4.8c-0.3,0.5-0.5,0.9-0.6,1.2c-1.2,0.7-2.6,1.3-4.5,1.9
	c-3.2,0.9-6.5,1.3-9.5,1.2c-0.3-0.1-0.5-0.1-0.8,0c-2.2-0.2-4.2-0.6-5.5-1.4c-3.4-2-3.3-3.7-2.7-5.8c0.5-2.1,0.3-3-1.1-3.9
	c-0.4-0.2-0.8-0.3-1.1-0.1c-0.7,0.2-1.1,0.9-1.7,2.2c-0.5,1.1-1.3,2.7-2.6,5c-4.3,7.2-4.6,13-4,16.6c0.4,2.9,1.4,4.8,2,5.8
	c-0.5,0.1-0.7,0.6-0.5,1.1C4.8,68.1,6,71.1,7,72.1c0.2,0.2,0.4,0.4,0.8,0.5c0.1,0.1,0.2,0.2,0.3,0.3l3.5,2.6
	c0.3,0.2,0.6,0.3,0.9,0.2c0.3-0.1,0.6-0.3,0.7-0.5l0.1-0.2l1.3,0.9c0.3,0.2,0.7,0.3,1,0.2s0.6-0.4,0.7-0.7l0,0l1.1,0.8
	c0.3,0.2,0.6,0.3,1,0.2c0.3-0.1,0.6-0.3,0.7-0.7l0.2-0.4l1.1,0.9c0.3,0.2,0.6,0.3,1,0.2c0.3-0.1,0.6-0.3,0.7-0.7v-0.1l1.2,0.8
	c0.3,0.2,0.6,0.2,0.9,0.2c0.3-0.1,0.6-0.3,0.7-0.6l0.1-0.2l1.7,0.9c0.3,0.2,0.7,0.2,1,0s0.6-0.5,0.6-0.8v-0.1l1.5,0.7
	c0.3,0.1,0.6,0.2,0.9,0c0.3-0.1,0.5-0.4,0.6-0.7l0.1-0.2l1.5,0.9c0.3,0.2,0.7,0.2,1,0.1s0.6-0.4,0.7-0.8l0.1-0.2l1.6,0.9
	c0.3,0.2,0.7,0.2,1.1,0S38,76,38,75.6l2.3,0.8c0.2,0.1,0.5,0.1,0.7,0l2.3-0.6c0,0.4,0.2,0.7,0.5,0.9s0.7,0.3,1.1,0.1l1.8-0.8
	c0.1,0.3,0.2,0.5,0.5,0.7c0.2,0.1,0.4,0.2,0.6,0.2c0.1,0,0.3,0,0.4-0.1l1.8-0.3c0.1,0.2,0.2,0.4,0.4,0.5c0.3,0.2,0.7,0.2,1.1,0.1
	l1.5-0.7c0.1,0.2,0.2,0.4,0.5,0.6c0.3,0.2,0.7,0.2,1.1,0.1l1.7-0.8c0.1,0.2,0.2,0.5,0.5,0.6c0.3,0.2,0.8,0.2,1.1,0l1.7-0.9
	c0,0.4,0.2,0.7,0.6,0.9c0.4,0.2,0.8,0.2,1.1,0l1.4-0.9c0.1,0.2,0.2,0.4,0.4,0.5c0.3,0.2,0.8,0.2,1.1,0l1.8-1
	c0.1,0.2,0.3,0.4,0.5,0.5c0.3,0.2,0.8,0.2,1.1,0l1.8-1c0.1,0.3,0.2,0.5,0.5,0.6c0.3,0.2,0.7,0.2,1.1,0.1l2-1
	c0.1,0.3,0.3,0.5,0.5,0.6c0.4,0.2,0.8,0.2,1.1,0l2-1.2c0.1,0.2,0.2,0.4,0.4,0.6c0.3,0.2,0.6,0.3,1,0.2l5.3-1.5h0.1
	c1.6-0.3,4.9-1.5,7.9-2.8c5.7-2.5,6.2-3.6,6.4-4.1C98.7,64.4,97.9,60.4,96.5,58.2z M80.3,67.4c-0.5,0.8-0.9,1.5-1.2,2.1
	c-0.8,0.1-3.3,0.6-6.4,0.8c-3.9,0.2-14.3-0.2-21-1.3c1.6-1.5,4-3.5,5.2-4.4c2.1-1.6,3.8-1.7,5.6-1.8c0.2,0,0.5,0,0.7,0h0.3
	c10.5-0.8,17.2-1.6,21-2.1c1.7-0.2,6.4-0.9,7.6-3c0.4,0.1,0.8,0.3,1.2,0.4C90.1,59.5,83.1,62.9,80.3,67.4z M19.3,54.4
	c7.8,0,14.9-1.4,19.6-3.7L22.6,66.2h-1.1c-0.4-4.5-2-8.6-4.4-11.8C17.8,54.4,18.6,54.4,19.3,54.4z M45.4,50.1
	c1.3,0.4,2.7,0.9,4.2,1.4l-15.7,15c-1.8-0.2-3.3-0.3-4.6-0.3h-0.8L45.4,50.1z M54,53c1.3,0.4,2.7,0.9,4,1.3L43.7,67.8l0,0
	c-1.5-0.2-3.1-0.5-4.6-0.7L54,53z M89.2,57.3c-0.8,0.4-2.3,0.9-5.1,1.3c-3.7,0.5-10.4,1.3-20.9,2.1h-0.3c-0.2,0-0.4,0-0.7,0
	c-1.9,0.1-4.1,0.3-6.8,2.2c-1.7,1.2-5.3,4.5-6.7,5.7h-0.1l13.6-12.9c3.9,1.2,7.2,2.2,8.7,2.5c0.9,0.2,1.7,0.3,2.5,0.3
	c2.7,0,4.4-1.1,5.5-2.3c1.1,0.4,3,0.7,6.4,0.8C86.9,57.1,88.2,57.1,89.2,57.3z M53,49.1c0.2,0.1,0.4,0.2,0.6,0.2
	c0.4,0,0.7-0.2,0.9-0.5l1.4-2c0.9,0.4,1.9,0.7,2.8,1.1l-1,1.4c-0.4,0.5-0.2,1.2,0.3,1.6c0.2,0.1,0.4,0.2,0.6,0.2
	c0.4,0,0.7-0.2,0.9-0.5l1.3-1.8c0.9,0.4,1.9,0.7,2.8,1.1l-0.6,1c-0.3,0.5-0.2,1.2,0.3,1.6c0.2,0.1,0.4,0.2,0.6,0.2
	c0.4,0,0.7-0.2,0.9-0.5l1-1.5c0.9,0.4,1.9,0.7,2.8,1.1L68,52.6c-0.4,0.5-0.2,1.2,0.3,1.6c0.2,0.1,0.4,0.2,0.6,0.2
	c0.4,0,0.7-0.2,0.9-0.5l0.9-1.3c2.8,1.1,5.1,2,6.3,2.4c-1.3,1.2-3.1,1.5-5.5,1c-4.2-0.9-20.7-6.4-29.4-9.4c-0.1-0.1-0.2-0.1-0.3-0.1
	c-0.9-0.3-1.7-0.6-2.3-0.8c0.2-0.1,0.4-0.3,0.6-0.4c1-0.7,1.9-1.3,3-1.6c2.5-0.9,5.4,0.1,5.5,0.2c0.1,0,0.1,0,0.2,0l-1.2,1.8
	c-0.4,0.5-0.2,1.2,0.3,1.6c0.2,0.1,0.4,0.2,0.6,0.2c0.4,0,0.7-0.2,0.9-0.5l1.5-2.2c0.9,0.4,1.9,0.8,3,1.2l-1.2,1.5
	C52.4,48,52.5,48.7,53,49.1z M41.3,40.7c0.4,0.1,0.9,0.4,1.6,0.7c-0.2,0.1-0.4,0.1-0.6,0.2c-0.7,0.2-1.3,0.5-1.9,0.9L41.3,40.7z
	 M32.8,48.8c1.6-0.5,3-1,4.1-1.6c0.6,0.2,1.3,0.5,2.3,0.8c-4,2.4-10.9,3.9-18.5,4.1c0.7-0.5,1.3-1.2,2-2
	C26.1,50.3,29.8,49.7,32.8,48.8z M11.3,40.7c-0.5,2.6-0.3,5.2,3.9,7.7c1.3,0.7,2.9,1.2,4.6,1.5C19,50.7,18.2,51,16.4,51
	c-2,0-5.1-1.4-8.6-3.8C8.2,46.5,8.6,45.7,9,45C10.1,43.3,10.8,41.8,11.3,40.7z M6.9,49.2c1.3,0.9,2.7,1.8,4.2,2.5l0.1,0.1
	c4.5,3,7.4,8.3,8,14.4H7.4c0-0.3-0.1-0.5-0.2-0.7C7.2,65.4,2.7,59.3,6.9,49.2z M26,71.9c-3.9,0-7-0.1-8.4-0.1
	c-6.1,0-8.5-0.8-8.9-1.3c-0.3-0.3-0.8-1.2-1.2-2.1h21.9c4.7,0,15,1.7,21.7,2.8c1.9,0.3,4.1,0.6,6.4,0.8C48.3,72.1,34.9,72,26,71.9z
	 M95.7,65.5c-0.7,1.1-7.8,4.3-11.6,5.4c-0.1,0-0.2,0-0.4,0l-1,0.3c-1.1,0.2-1.6,0.2-1.8,0.1c0-0.3,0.2-1,1.3-2.8
	c2.7-4.3,10.4-7.7,12.7-8.6C95.8,61.8,96.2,64.4,95.7,65.5z"/>
</svg>
