<?xml version="1.0" encoding="utf-8"?>
<!-- Generator: Adobe Illustrator 18.0.0, SVG Export Plug-In . SVG Version: 6.00 Build 0)  -->
<!DOCTYPE svg PUBLIC "-//W3C//DTD SVG 1.1//EN" "http://www.w3.org/Graphics/SVG/1.1/DTD/svg11.dtd">
<svg version="1.1" id="Layer_1" xmlns="http://www.w3.org/2000/svg" xmlns:xlink="http://www.w3.org/1999/xlink" x="0px" y="0px"
	 viewBox="0 0 100 100" enable-background="new 0 0 100 100" xml:space="preserve">
<g id="Captions">
</g>
<g id="Your_Icon">
	<g>
		<ellipse fill="#FFFFFF" cx="42.6" cy="6.7" rx="1.2" ry="1.6"/>
		<ellipse fill="#FFFFFF" cx="56.6" cy="6.7" rx="1.2" ry="1.6"/>
		<ellipse fill="#FFFFFF" cx="43" cy="13.5" rx="1.2" ry="1.6"/>
		<path fill="#FFFFFF" d="M56.2,11.9c-0.7,0-1.2,0.7-1.2,1.6c0,0.9,0.5,1.6,1.2,1.6c0.7,0,1.2-0.7,1.2-1.6
			C57.4,12.7,56.9,11.9,56.2,11.9z"/>
		<path fill="#FFFFFF" d="M48.7,84.4h1.6l0-12.9c-0.2,0-0.5,0.1-0.8,0.1c-0.3,0-0.6,0-0.8-0.1L48.7,84.4z"/>
		<path fill="#FFFFFF" d="M50.5,18.9l0.1,42.6c0.6,0.1,1.1,0.3,1.6,0.6l-0.5-43.3C51.7,18.9,50.5,18.9,50.5,18.9z"/>
		<path fill="#FFFFFF" d="M50.3,61.5l-0.1-42.6h-1.4l-0.1,42.6c0.3,0,0.5-0.1,0.8-0.1C49.9,61.4,50.1,61.4,50.3,61.5z"/>
		<polygon fill="#FFFFFF" points="52.5,85.9 52.5,84.9 50.6,84.9 50.6,85.9 		"/>
		<path fill="#FFFFFF" d="M50.6,71.5l0,12.9h1.9l-0.2-13.6C51.8,71.2,51.2,71.4,50.6,71.5z"/>
		<rect x="48.7" y="84.9" fill="#FFFFFF" width="1.6" height="0.9"/>
		<path fill="#FFFFFF" d="M45.1,15.9c1.4,0.8,1.6,2.1,1.7,2.8h0.5l0-4.1c-0.1,0-0.2,0.1-0.3,0.1c-0.5,0-0.9-0.4-0.9-0.9
			c0-0.5,0.4-0.9,0.9-0.9c0.5,0,0.9,0.4,0.9,0.9c0,0.3-0.1,0.6-0.4,0.7l-0.1,4.2h1.1L47.4,7.1c-0.2,0.1-0.3,0.2-0.6,0.2
			c-0.5,0-0.9-0.4-0.9-0.9c0-0.5,0.4-0.9,0.9-0.9c0.5,0,0.9,0.4,0.9,0.9c0,0.2,0,0.3-0.1,0.4l1.2,11.8h1.5l1.2-12.1c0,0,0-0.1,0-0.1
			c0-0.5,0.4-0.9,0.9-0.9c0.5,0,0.9,0.4,0.9,0.9s-0.4,0.9-0.9,0.9c-0.3,0-0.5-0.1-0.7-0.3l-1.1,11.7h1.1l-0.1-4.3h0
			c-0.2-0.2-0.3-0.4-0.3-0.7c0-0.5,0.4-0.9,0.9-0.9c0.5,0,0.9,0.4,0.9,0.9c0,0.5-0.4,0.9-0.9,0.9c-0.1,0-0.3,0-0.4-0.1l0,4.2h0.6
			c0-0.7,0.3-2,1.7-2.8c0,0-0.1-8.2,1.4-12L51.1,1h-3l-4.3,2.9C45.2,7.7,45.1,15.9,45.1,15.9z"/>
		<path fill="#FFFFFF" d="M45.2,85.4c0,0.3,0.2,0.5,0.5,0.5h0.8l0-0.9h-0.8C45.4,84.9,45.2,85.2,45.2,85.4z"/>
		<path fill="#FFFFFF" d="M54.3,85.4c0-0.3-0.2-0.5-0.5-0.5h-1.1l0,0.9h1.1C54.1,85.9,54.3,85.7,54.3,85.4z"/>
		<path fill="#FFFFFF" d="M62.1,73.8c-2-4.1-0.8-7.8-0.8-7.8c0.8-1.9,0.8-5.9,0.8-5.9c0-7.3-6.9-7.7-8.9-7.6l-0.9-33.5c0,0,0,0,0,0
			h-0.5l0.5,43.4c1.4,0.9,2.3,2.5,2.3,4.2c0,1.7-0.9,3.2-2.2,4.2l0.2,13.7h3.5l0.5,2.6c0,0-2.5,0-3.8,0.4c0,0-1.5,0.6-3,0.6h-0.6
			c-1.5,0-3-0.6-3-0.6C45,87,42.5,87,42.5,87l0.5-2.6h3.4l0.2-13.8c-1.3-0.9-2.1-2.4-2.1-4.1c0-1.7,0.9-3.3,2.2-4.2l0.5-43.5h-0.5
			c0,0,0,0,0,0l-0.9,33.5c-2,0-8.9,0.4-8.9,7.6c0,0,0,4,0.8,5.9c0,0,1.1,3.7-0.8,7.8c0,0-4.5,8.8-4,14.4c0,0,0.6,10.4,16.3,10.4h0.5
			c15.8,0,16.3-10.4,16.3-10.4C66.6,82.6,62.1,73.8,62.1,73.8z"/>
		<path fill="#FFFFFF" d="M48.6,18.9h-1.2l-0.5,43.3c0.5-0.3,1-0.5,1.6-0.7L48.6,18.9z"/>
		<path fill="#FFFFFF" d="M48.5,71.5c-0.6-0.1-1.2-0.4-1.7-0.7l-0.2,13.6h1.9L48.5,71.5z"/>
		<polygon fill="#FFFFFF" points="46.6,85.9 48.5,85.9 48.5,84.9 46.6,84.9 		"/>
	</g>
</g>
</svg>
