<?xml version="1.0" encoding="utf-8"?>
<!-- Generator: Adobe Illustrator 18.0.0, SVG Export Plug-In . SVG Version: 6.00 Build 0)  -->
<!DOCTYPE svg PUBLIC "-//W3C//DTD SVG 1.1//EN" "http://www.w3.org/Graphics/SVG/1.1/DTD/svg11.dtd">
<svg version="1.1" id="svg2" xmlns:svg="http://www.w3.org/2000/svg"
	 xmlns="http://www.w3.org/2000/svg" xmlns:xlink="http://www.w3.org/1999/xlink" x="0px" y="0px" viewBox="37.5 45 875 530"
	 enable-background="new 37.5 45 875 530" xml:space="preserve">
<path id="kalimantan" fill="#FFFFFF" d="M766.5,367.1l-2.3,8.7l-12.5,4.2l-3.8-4.4l-1.8,0.5l3.4,13.1l5.1,0.6l6.8,2.6v2.6l3.1-0.6
	l4.5-6.3V383l2.5-5.1l2.8,0.6l-3.4-7.1l-0.5-4.6L766.5,367.1L766.5,367.1z"/>
<path id="papua_new_guinea" fill="#FFFFFF" d="M837.6,391l-0.4,24.4l3.5-0.2l4.6-5.4l3.9,0.2l2.5,2.2l0.8,6.9l8,4.2l2-0.8v-2.5
	l-6.4-5.3l-3.2-7.3l2.5-1.2l-1.8-4l-3.7-0.1l-0.9-4.3l-9.8-6.6L837.6,391L837.6,391z"/>
<path id="mexico" fill="#FFFFFF" d="M122.3,268.1l4.8,15.2l-2.2,1.3l0.2,3l4.2,3.3v6.1l5.2,5l-2.2-14.9l-3-9.8l0.8-6.8l2.5,0.2
	l1,2.3l-1,5.8l13,25.4v9.1l10.5,12.3l11.5,5.3l4.8-2.8l6.8,5.5l4-4l-1.8-4.5l5.8-1.8l1.8,1l1.8-1.8h2.8l5-8.8l-2.5-2.3l-9.8,2.3
	l-2.2,6.5l-5.8,1l-6.8-2.8l-3-9.6l2.3-12.1L166,294l-2.2-11.6l-1.9-0.8l-3.4,3.4l-3.9-2.1l-1.5-7.7l-15.4-1.6l-7.9-6L122.3,268.1
	L122.3,268.1z"/>
<path id="estonia" fill="#FFFFFF" d="M502.6,186.3l-5.6-0.2l-3.5,2.2l0,1.6l2.3,2.2l7.2,1.2L502.6,186.3L502.6,186.3z"/>
<path id="algeria" fill="#FFFFFF" d="M458.7,270.2l-4.1-1.4l-17,3.2l-3.7,2.8l2.3,11.7l-6.8,0.3l-4.1,6.5l-9.7,2.3l0,4.8l31.9,24.4
	l5.4,0.5l18.1-14.1l-1.8-2.3l-3.4-0.5l-2-3.4v-14.1l-1.4-1.4l0.2-3.6l-3.6-3.6l-0.5-3.9l1.6-1.1l-0.7-4.1L458.7,270.2L458.7,270.2z"
	/>
<path id="morocco" fill="#FFFFFF" d="M433.1,275h-11.5l-2.3,5l-5.2,2.5l-4.3,11.6l-8.4,5l-11.8,19.4l11.5-0.2l0.5-5.7h2.9v-7.8h10.2
	l0.2-10l9.7-2.3l4.1-6.6l6.3-0.2L433.1,275L433.1,275z"/>
<path id="mauretania" fill="#FFFFFF" d="M389.7,319.3l2.2,2.9l-0.5,12.3l3.2-2.3l2.3-0.5l3.2,1.1l3.6,5l3.4-2.3l16.5-0.2l-4.1-27.6
	l4.4,0l-8.2-6.2l0,4.1l-10.3,0l0,7.8l-3,0l-0.4,5.7L389.7,319.3L389.7,319.3z"/>
<path id="senegal" fill="#FFFFFF" d="M394.9,333l-3.9,2.9l-0.9,1.6l-0.3,1.6l1.5,1l4.8-0.1l3.1-0.8l0.4,1.5l-0.3,2l3,1.5l0.6,0.7
	l3.9,0.1l0.1-1.7l-3.6-4.3l-4-5.4l-2.5-1L394.9,333L394.9,333z"/>
<path id="gambia" fill="#FFFFFF" d="M391.7,341l-0.1,1.1l6.9-0.1l0.4-1l-0.1-1l-2,0.8L391.7,341L391.7,341z"/>
<path id="casamance" fill="#FFFFFF" d="M391.6,342.9l1.2,3l0.7-1.9l8.4,0.9l-3.6-1.9L391.6,342.9L391.6,342.9z"/>
<path id="bissau" fill="#FFFFFF" d="M393.4,347.2l1.4,2.8l3.9-3.4l0-1l-4.6-0.7L393.4,347.2L393.4,347.2z"/>
<path id="guinee" fill="#FFFFFF" d="M395.2,350.6l3,4.7l4-3.4l4.1-0.2l3.4,4.5l2.9,1.9l1.1-2.1l1-0.5l-0.1-4.6l-1.9-5.5l-5.9,0.6
	l-7.2-0.6l0,1.9L395.2,350.6L395.2,350.6z"/>
<path id="sierra_leone" fill="#FFFFFF" d="M398.8,355.8l5.6,5.5l4-4.9l-2.5-4l-3.5,0.4L398.8,355.8L398.8,355.8z"/>
<path id="liberia" fill="#FFFFFF" d="M405,361.9l11,7.3l-0.3-5.6l-3.3-3.9l-3.2-2.9L405,361.9L405,361.9z"/>
<path id="ivoire" fill="#FFFFFF" d="M416.9,369.4l4.3-3l5.3-0.9l5.4,1.2l-2.8-4.2l-0.8-2.6l0.8-7.6l-4.9,0.2l-2.2-2.1l-4.6,0.1
	l-2.2,0.4l0.2,5.1l-1.2,0.5l-1.4,2.6l3.6,4.2L416.9,369.4L416.9,369.4z"/>
<path id="mali" fill="#FFFFFF" d="M404.3,338.5l3.1-2.1l17.1-0.1l-4-27.5l4.5-0.1l21.9,16.7l2.9,0.4l-1.1,9.3l-13.8,1.2l-10.6,7.9
	l-1.9,5.4l-7.4,0.3l-1.9-5.4l-5.6,0.4l0.2-1.8L404.3,338.5L404.3,338.5z"/>
<path id="burkina" fill="#FFFFFF" d="M435.4,337l3.6-0.3l6,8.4l-5.5,4.2l-4-1l-5.4,0.1l-0.9,3.2l-4.5,0.2l-1.2-1.7l1.6-5.1
	L435.4,337L435.4,337z"/>
<path id="niger" fill="#FFFFFF" d="M445.7,344.7l2.5-0.1l2.3-3.5l3.9-0.7l4.1,2.5l8.8,0.2l6.8-2.8l2.5-2.2l0.2-2.9l4.7-4.8l1.2-10.5
	l-3.1-6.5l-8-1.9L453.3,326l-2.6-0.2l-1.1,10l-9.4,0.9L445.7,344.7L445.7,344.7z"/>
<path id="ghana" fill="#FFFFFF" d="M429.2,359.7l1.1,2.6l2.9,4.6l1.6-0.1l4.4-2.5l-0.3-14.3l-3.4-1l-4.8,0.1L429.2,359.7
	L429.2,359.7z"/>
<path id="togo" fill="#FFFFFF" d="M440,363.9l2.7-1.6l-0.1-10.4l-1.7-2.8l-1.1,0.9L440,363.9L440,363.9z"/>
<path id="benin" fill="#FFFFFF" d="M443.5,362.2h2.1l0.1-6l2.7-3.9l-0.1-6.8l-2.4-0.1l-4.2,3.3l1.7,3.3L443.5,362.2L443.5,362.2z"/>
<path id="nigeria" fill="#FFFFFF" d="M446.4,362l3.9,0.2l4.7,5.3l2.3,0.6l1.8-0.9l2.7-0.4l0.9-3.8l3.7-2.5l4-0.2l7.4-13.6l-0.1-3.1
	l-3.4-2.6l-6.8,3l-9.1-0.1l-4.4-2.8l-3.1,0.7l-1.6,2.8l-0.1,8l-2.6,3.7L446.4,362L446.4,362z"/>
<path id="tunisia" fill="#FFFFFF" d="M459.7,270l5.5-2.2l1.8,1.2l0.1,1.4l-0.9,1.1l0.1,2l0.9,0.5v3.5l-1,1.6l0.1,1.1l3.7,1.3l-3,4.6
	l-1.2-0.1l-0.2,3.7l-1.3,0.2l-1.1-1l0.3-3.8l-3.6-3.5l-0.5-3.1l1.8-1.4L459.7,270L459.7,270z"/>
<path id="libya" fill="#FFFFFF" d="M464.9,290.7l1.6-0.3l0.5-3.6h0.8l3.2-5.2l7.9,2.3l2.1,3.3l7.7,3.5l4-1.7l-0.4-1.7l-1.8-1.7
	l0.2-1.2l2.9-2.4h5.7l2.2,2.9l4.5,0.7l0.6,36.9l-3.4-0.1l-20.4-10.6l-2.2,1.2l-8.4-2.1l-2.3-3l-3.3-0.5l-1.7-3L464.9,290.7
	L464.9,290.7z"/>
<path id="egypt" fill="#FFFFFF" d="M506.8,285.7l2.7,0.1l5.2,1.4l2.5,0.1l3.1-2.6h1.4l2.6,1.4h3.3l0.6,0l2.1,6l0.6,1.9l0.5,2.9
	l-1,0.7l-1.7-0.9l-2-6.4l-1.8-0.1l-0.1,2.2l1.2,3.7l9.4,11.6l0.2,5l-2.7,3.1l-25.6-0.3L506.8,285.7L506.8,285.7z"/>
<path id="chad" fill="#FFFFFF" d="M477.6,338.7l0.1-3l4.7-4.6l1.3-11.3l-3.2-6l2.2-1.1l21.4,11.1l-0.1,10.9l-3.8,3.2v5.6l2.5,4.8
	h-4.4l-7.2,7.1l-0.2,2.2l-5.3-0.1l-0.1,1l-3-0.4l-2.1-3.9l-1.6-0.8l0.2-1.2l2-1.5v-7l-2.7-0.4l-3.3-2.4L477.6,338.7L477.6,338.7
	L477.6,338.7z"/>
<path id="sudan" fill="#FFFFFF" d="M505,335.1l0.2-11.8l2.5,0.1l-0.3-6.6l25.8,0.2l3.7-3.7l8,12.7l-4.4,5.1v7.9l-6.9,14.8l-2.4,1
	l0.8,4.1h2.9l4,5.8l-3.2,0.4l-0.8,1.5l-0.1,2.1l-9.6-0.2l-1-1.5l-6.7-0.4L505.2,354l1.2-0.7l0.3-3l-3-1.7l-2.7-5.3l0.2-4.9
	L505,335.1L505,335.1z"/>
<path id="cameroon" fill="#FFFFFF" d="M462.6,367l3.2,3l-0.2,4.6l17.7-0.4l1.4-1.6l-5.1-5.5l-0.8-2l3.2-6l-2.2-4l-1.8-1v-2l2.1-1.4
	l0.1-6.3l-1.7-0.2l0,3.3l-7.4,13.9l-4.5,0.2l-3.1,2.1L462.6,367L462.6,367z"/>
<path id="eritrea" fill="#FFFFFF" d="M541.5,337.4l-0.2-5.9l4-4.6l1.1,0.8l2,6.5l9.4,7l-1.7,2.1l-6.8-5.9L541.5,337.4L541.5,337.4z"
	/>
<path id="djibouti" fill="#FFFFFF" d="M556.3,344.2l-0.6,3.4l4-0.1l0.1-4.9l-1.5-0.9L556.3,344.2L556.3,344.2z"/>
<path id="ethiopia" fill="#FFFFFF" d="M534.3,354.4l7.3-16.2l7.2,0l6.4,5.6l-0.5,4.6h5l0.5,2.8l8,4.8l5,0.2l-9.4,10.1l-13,4h-3.2
	l-5.7-4.9l-2.3-1l-4.4-6.5l-2.9,0l-0.3-3L534.3,354.4L534.3,354.4z"/>
<path id="somaliland" fill="#FFFFFF" d="M560.6,347.7l4.1,2.8l1.2-0.1L576,347l1.2,3.7l-0.8,3.1l-2.2,1.7l-5.5-0.4l-7.8-4.8
	L560.6,347.7L560.6,347.7z"/>
<path id="soqotra" fill="#FFFFFF" d="M584.5,342.3l2.1,2.4l2.9-1.7l1-0.4l-1.3-1.3l-2.5,0.8L584.5,342.3L584.5,342.3z"/>
<path id="somalia" fill="#FFFFFF" d="M576.8,346.7l4.4-1.7l1.5,0.9l-0.2,3.9l-4,11.5l-21.8,23.4l-2.5-1.7l-0.2-9.9l3.3-3.8l7-2.1
	l10.2-10.8l2.7-2.4l0.8-3.5L576.8,346.7L576.8,346.7z"/>
<path id="centrafrique" fill="#FFFFFF" d="M480.5,366.7l4.7,5l1.8-2.4l2.9,0.1l0.6-2.3l2.9-1.8l6,4.1l3.5-3.4l13.4,0.6l-12.4-12.8
	l1.7-1l0.2-2.3l-2.8-1.3h-4.1l-6.7,6.6l-0.2,2.7l-5.3-0.2l-0.2,1.2l-3.5-0.4l-3.1,5.9L480.5,366.7L480.5,366.7z"/>
<path id="sao_tome" fill="#FFFFFF" d="M455.6,379.8l1.1-0.6l0.9,0.7l-0.9,1.3l-1-0.4L455.6,379.8L455.6,379.8z"/>
<path id="principe" fill="#FFFFFF" d="M457.9,376.2l1.7-0.3l0.6,1.1l-0.9,0.9l-0.9-0.1L457.9,376.2L457.9,376.2z"/>
<path id="bioko" fill="#FFFFFF" d="M461.7,370.1l-0.5,2l1.4,0.8l1.3-1l-0.5-2L461.7,370.1L461.7,370.1z"/>
<path id="gabon" fill="#FFFFFF" d="M471.2,375.3l-0.1,2.5l-5.6-0.1l-3.5,6.7l8.1,8.9l2-1.7l-0.1-1.7l-1.4-0.6v-1.2l3.1-2l2.8,2.1
	l3,0.1l-0.1-10.5l-4.8-0.2l-0.1-2.2L471.2,375.3L471.2,375.3z"/>
<path id="equatorial_guinea" fill="#FFFFFF" d="M465.8,375.4l-0.1,1.4l4.5,0.2l-0.1-1.6L465.8,375.4L465.8,375.4z"/>
<path id="congo" fill="#FFFFFF" d="M475.8,375.2l-0.1,1.5l4.8,0.1l0.2,12.4l-4.4-0.1l-2.5-2l-2,1.1l-0.1,0.5l1,0.5l0.3,2.5l-2.7,2.3
	l0.6,1.2l3-2.3h1.4l0.5,1.4l1.9,0.8l6.1-5.2l-0.1-3.8l1.3-3.1l3.9-2.9l1-9.8l-2.8,0l-3.2,4.4L475.8,375.2L475.8,375.2z"/>
<path id="cabinda" fill="#FFFFFF" d="M471.4,395.9l1.7,2.3l2.2-2.1l-0.7-2.2l-0.6,0L471.4,395.9L471.4,395.9z"/>
<path id="drc" fill="#FFFFFF" d="M474.2,398.4l10.3-0.2l2.1,3l-0.1,2.2l0.8,0.7h5.1l1.5-2.9h2.1l0.9,0.9l2.9-0.1l0.8,10.1l5,0.2v0.8
	l13.3,6l0.6,1.2h2.8l-0.3-4.2l-5-2.4l0.3-3.2l2.2-5.1l5-0.2l-4.3-14.1l0.1-6l6.7-10.5l0.1-1.5l-1-0.5l0-2.9l-1.2-0.1l-1.2-1.6
	l-20.4-0.9l-3.7,3.6l-6.1-4l-2.1,1.3l-1.6,13.1l-3.9,3l-1.2,2.6l0.2,3.9l-7,5.7l-1.9-0.8l0.2,1.1L474.2,398.4L474.2,398.4z"/>
<path id="rwanda" fill="#FFFFFF" d="M522.7,382.6l2.8,2.6l-0.1,2.8L521,388V385L522.7,382.6L522.7,382.6z"/>
<path id="burundi" fill="#FFFFFF" d="M521,388.9l4.3-0.1l-1.1,3.7l-1.1,0.9h-1.3l-0.9-2.5L521,388.9L521,388.9z"/>
<path id="uganda" fill="#FFFFFF" d="M523.1,381.8l3,2.8l1.9-1.2l5.1-0.8l0.9,0.1l0.3-2l2.9-6.1l-2.4-5.1l-7.9,0l0,2.1l1.1,1
	l-0.2,2.1L523.1,381.8L523.1,381.8z"/>
<path id="kenya" fill="#FFFFFF" d="M535.7,369.2l2.7,5.2l-3.2,6.7l-0.4,2l15.9,9.9l4.9-7.8l-2.5-2l0-10.2l3.1-3.4l-5,1.7l-3.8,0
	l-5.9-5l-1.9-0.8l-3.5,0.3l-0.6,1L535.7,369.2L535.7,369.2z"/>
<path id="tanzania" fill="#FFFFFF" d="M535.4,414.1l17.5-2.1l-3.9-7.6l-0.2-7.3l1.3-3.5l-16.6-10.4l-5.2,0.9l-1.8,1.3l-0.2,3
	l-1.2,4.2l-1.2,1.5l-1.8,0.2l3.3,11.6l5.5,2.6l3.8,0.1L535.4,414.1L535.4,414.1z"/>
<path id="zambia" fill="#FFFFFF" d="M499.4,427.4l3.2,4.4l4.9,0.3l1.7,1l5.1,0.1l4.4-6.2l12.4-5.5l1.1-4.9l-1.4-7l-6.5-3.7l-4.3,0.3
	l-2.2,4.8l0.1,2.2l5.1,2.5l0.3,5.4l-4.4,0.2l-1.1-1.8l-12.1-5.2l-0.4,4l-5.7,0.2L499.4,427.4L499.4,427.4z"/>
<path id="angola" fill="#FFFFFF" d="M473.4,399.4l3.4,12.7l-0.1,4l-5,5.4l-0.8,8.7l19.2,0.2l6.2,2.3l5.2-0.7l-3-3.8l0-10.7l5.9-0.2
	V413l-4.8-0.2l-1-9.9l-2,0l-1.1-1l-1.2,0.1l-1.6,3.1h-6.1l-1.4-1.4l0.4-2l-1.7-2.4L473.4,399.4L473.4,399.4z"/>
<path id="malawi" fill="#FFFFFF" d="M532,422.1l3.1,3.2l-0.1,4.2l0.6,1.8l4.1-4.5l-0.5-5.7l-2.2-1.7l-2-10l-3.4-0.1l1.5,7.2
	L532,422.1L532,422.1z"/>
<path id="mozambique" fill="#FFFFFF" d="M526,456l2.7,2.2l6.3-3.9l1-5.7v-9.5l10.2-8.3l1.7,0.1l6.2-5.9l-1-12.2l-16.3,2.1l0.5,3.7
	l2.8,2.2l0.7,6.6l-5.5,5.4l-1.3-3l0.2-4l-3.2-3.4l-7.8,3.6l7.2,3.7l0.2,10.7l-4.8,7.1L526,456L526,456z"/>
<path id="zimbabwe" fill="#FFFFFF" d="M509.5,435l9,10.1l6.9,1.8l4.6-7.2l-0.4-9.6l-7.5-3.9l-2.8,1.3l-4.2,6.4l-5.8-0.1L509.5,435
	L509.5,435z"/>
<path id="namibia" fill="#FFFFFF" d="M481.4,464.6l3.4,0.2l2,2l4.7,0.1l1.1-13.3V445l3-0.6l1.1-9.1l7.6-0.2l2.7-2.2l-4.5-0.2
	l-6.2,0.8l-6.6-2.4h-18.7l0.5,5.3l6.2,9.2l-1.1,4.7l0.1,2.5L481.4,464.6L481.4,464.6z"/>
<path id="botswana" fill="#FFFFFF" d="M493.3,453.9l2.1,0.7l-0.3,6.1l2.2,0.3l5.1-4.6l6.1,0.7l1.6-4.1l7.7-7l-9.3-10.7l-0.1-1.8
	l-1-0.3l-2.8,2.6l-7.3,0.2l-1,9.1l-2.9,0.7L493.3,453.9L493.3,453.9z"/>
<path id="swaziland" fill="#FFFFFF" d="M525.7,456.7l-2.5,0.4l-1.1,3l1.9,1.8h2.3l2-2.8L525.7,456.7L525.7,456.7z"/>
<path id="lesotho" fill="#FFFFFF" d="M512.2,468.1l3-2.4l1.4,0.1l1.7,2.2l-0.2,2.2l-2.9,1.1v0.8l-3.2-0.2l-0.8-2.4L512.2,468.1
	L512.2,468.1z"/>
<path id="south_africa" fill="#FFFFFF" d="M519,446.3l-7.9,7.3l-1.9,4.5l-6.3-0.8l-5.2,4.6l-3.5-0.3l0.3-6.4l-1.2-0.4l-0.9,13.1
	l-6.1-0.1l-1.9-2.2l-2.7,0l2.5,7.1l4.4,4.2l-3.1,3.7l2,4.6l4.7,1.8l3.8-3.2l10.8,0.1l0.8-1l4.8-0.8l16.2-16.1l-0.1-5.1l-1.7,2.2
	h-2.6l-3.2-2.6l1.6-4l2.8-0.6l-0.2-8.2L519,446.3L519,446.3z M515.2,464.8l1.5-0.1l2.5,2.7l-0.1,3.1l-2.9,1.5l-0.2,1l-4.4,0
	l-1.4-3.3l1.2-2.4L515.2,464.8L515.2,464.8z"/>
<path id="greenland" fill="#FFFFFF" d="M306,92.8l-1.4,2.2l2.5,2.4l-1.1,2.5l3.5,4.6l4.4-1.4l5.7-0.5l6.5,7.1l4.4,11.7l-3.5,7.3
	l4.9-0.8l2.7,1.6l0.3,3.5l-6,0.3l3.3,3.3l4.1,0.8l-9,12l-1.1,7.3l1.9,6l-1.4,3.5l2.5,7.6l4.6,5.2l1.4-0.3l3-0.8l0.3,4.4l1.9,2.7
	l3.5-0.3l2.7-10.1l8.2-10.1l12.2-4.9l7.6-9.5l3.5,1.6h7.3l6-6l7.3-3l0.8-4.6l-4.6-4.1l-4.1-1.4l-2.2-5.7l5.2-3l8.2,4.3l2.7-3
	l-4.4-2.4l9.2-12.5l-1.6-5.4l-4.4-0.3l1.6-4.9l5.4-2.5l11.1-9.8l-3.3-3.5L406,85.1l-6.5,6.5l3.8-8.4l-4.4-1.1l-2.5,4.4l-3.5-3
	l-9.8,1.1l2.7-4.3l16-0.5l-4.1-5.4L380.5,71l-7.1,1.1l0.3,3.5l-7.3-2.5l0.3-2.5l-5.2,1.1l-1.1,2.7l5.4,1.9l-5.7,4.1l-4.1-4.6
	l-5.7-1.6l-0.8,4.3h-5.7l-2.2-4.6l-9-1.4l-4.9,2.4l-0.3,3.3l-6.2-0.8l-3.8,1.6l0.3,3.8v1.9l-7.1,1.4l-3.3-2.2l-2.2,3.5l3.3,3.5
	l6.8-0.8l0.5,2.2l-5.2,2.4L306,92.8L306,92.8z"/>
<path id="disko" fill="#FFFFFF" d="M327.7,135.2l1.6,2.4l-0.8,3h-1.6l-2.2-2.4l0.5-1.9L327.7,135.2L327.7,135.2z"/>
<path id="milne" fill="#FFFFFF" d="M395.7,128.4l4.6,1.4l-0.3,3.8l-4.9-2.5l-1.1-1.4L395.7,128.4L395.7,128.4z"/>
<path id="australia" fill="#FFFFFF" d="M746,470.7l-0.3,25.4l-3.9,2.9l-0.3,2.5l5.3,3.6l13.1-2.5h6.7l2.5-3.6L784,496l10.6,3.2
	l-0.7,4.3l1.4,4.3l8.2-1.4l0.3,2.1l-5.3,3.9l1.8,1.4l3.9-1.4l-1.1,11.8l7.5,5.7l4.3-1.4l2.1,2.1l12.4-1.8l11.7-19l4.3-1.1l8.5-15.7
	l2.1-13.6l-5.3-6.8l2.1-1.4l-4.3-13.2l-4.6-3.2l0.7-17.9l-4.3-3.2l-1.1-10h-2.1l-7.1,23.6l-3.9,0.4l-8.9-8.9l5-13.2l-9.2-1.8
	l-10.3,2.9l-2.8,8.2l-4.6,1.1l-0.3-5.7l-18.8,11.4l0.3,4.3l-2.8,3.9h-7.1l-15.3,6.4L746,470.7L746,470.7z"/>
<path id="tasmania" fill="#FFFFFF" d="M810.6,538.9l-1.8,7.2l0.3,5l5.3-0.4l6-9.3L810.6,538.9L810.6,538.9z"/>
<path id="new_zealand_north_island" fill="#FFFFFF" d="M897.9,520.5l1.1,11.8l-1.4,5.4l-5.3,3.9l0.3,4.6v5l1.4,1.8l14.5-12.5v-2.9
	h-3.5l-5-16.8L897.9,520.5L897.9,520.5z"/>
<path id="new_zealand_south_island" fill="#FFFFFF" d="M887.2,546.3l2.8,5.4l-7.8,7.5l-0.7,3.9l-5.3,0.7l-8.9,8.2l-8.2-3.9l-0.7-2.9
	l14.9-6.4L887.2,546.3L887.2,546.3z"/>
<path id="new_caledonia" fill="#FFFFFF" d="M891.5,463.1l-0.3,1.8l4.6,6.4l2.5,1.1l0.3-2.5L891.5,463.1L891.5,463.1z"/>
<path id="sumatra" fill="#FFFFFF" d="M707.3,360.2l-0.3,2.3l6.8,11.4h2l14.2,23.7l5.7,0.6l2.8-8.3l-4.5-2.9l-0.8-4.6L707.3,360.2
	L707.3,360.2z"/>
<path id="east_malaysia" fill="#FFFFFF" d="M749,375.6l3,3.5l11.6-4l2.3-8.8l5.2-0.4l4.7-3.4l-6.1-4.5l-1.4-2.5l-3,5.6l1.1,3.2
	l-1.8,2.7l-3.5-0.9l-8.4,6.2l0.2,3.6L749,375.6L749,375.6z"/>
<path id="brunei" fill="#FFFFFF" d="M764.6,361.9l-2.9,3.5l2.4,0.7l1.3-1.9L764.6,361.9L764.6,361.9z"/>
<path id="sulawesi" fill="#FFFFFF" d="M774.4,391.8l2.3,2.8l-1.5,4.2v0.8h3.3l1.2-10.4l1.1,0.3l2,9.5l1.9,0.5l1.8-4.1l-1.8-6.1
	l-1.5-2.7l4.6-3.4l-1.1-1.5l-4.4,2.9h-1.2l-2.2-3.2l0.7-1.4l3.6-1.8l5.5,1.7l1.7-0.1l4.1-3.9l-1.7-1.7l-3.8,3h-2.5l-3.7-1.8
	l-2.7,0.1l-3,4.8l-1.9,8.2L774.4,391.8L774.4,391.8z"/>
<path id="maluku" fill="#FFFFFF" d="M799,373.2l-1.9,4.5l3,3.9h1l1.3-2.6l0.7-0.9l-1.3-1.4l-1.9-0.7L799,373.2L799,373.2z"/>
<path id="seram" fill="#FFFFFF" d="M804.8,388.1l-4,0.9l-1.2,1.3l1,1.7l2.7-1l1.7-1l2.5,2l1.1-0.9l-2-2.4L804.8,388.1L804.8,388.1z"
	/>
<path id="java" fill="#FFFFFF" d="M738,401l-2.8,1.9l0.6,1.6l8.8,2l4.4,0.8l1.9,2l5,0.4l2.4,2l2.2-0.5l2-1.8l-3.6-1.7l-3.1-2.7
	l-8.2-2L738,401L738,401z"/>
<path id="bali" fill="#FFFFFF" d="M766.6,409.6l-2.2,1.2l1.3,1.4l3.1-1.2L766.6,409.6L766.6,409.6z"/>
<path id="lombok" fill="#FFFFFF" d="M770.3,408.7l0.4,1.9l2.3,0.6l0.9-1.1l-1-1.5L770.3,408.7L770.3,408.7z"/>
<path id="sumba" fill="#FFFFFF" d="M775.7,413.7l-2.8,0.4l2.5,2.1h2L775.7,413.7L775.7,413.7z"/>
<path id="flores" fill="#FFFFFF" d="M776.5,410.4l-0.6,1.2l4.4,0.7l3.4-2l-2-0.6l-3.1,0.9l-1.2-1L776.5,410.4L776.5,410.4z"/>
<path id="timor" fill="#FFFFFF" d="M791,411.1l-5.1,4.3l0.5,1.1l2.2-0.4l2.5-2.4l5-0.7l-1-1.7L791,411.1L791,411.1z"/>
<path id="new_ireland" fill="#FFFFFF" d="M865.3,391.7l-0.9,1.2l4.8,4.3l0.7,2.5l1.3-0.1l0.2-2.6l-1.5-1.3L865.3,391.7L865.3,391.7z
	"/>
<path id="new_britain" fill="#FFFFFF" d="M867.7,397.7l-1,0.2l-0.6,2.6l-1.8,1.2l-5.5,1l0.2,2.1l5.8-0.3l3.7-2.3l-0.2-4L867.7,397.7
	L867.7,397.7z"/>
<path id="bougainville" fill="#FFFFFF" d="M874.2,402.2l1.2,3.5l2.2,2.1l0.7-0.6l-0.2-2.3l-2.5-3L874.2,402.2L874.2,402.2z"/>
<path id="choiseul" fill="#FFFFFF" d="M880.3,407.3l0.2,2.3l1.4,1.3l1.3-0.8l-1.2-2.4L880.3,407.3L880.3,407.3z"/>
<path id="new_georgia" fill="#FFFFFF" d="M882,413l-1.2,1.2l1.2,2.3l1.5,0.4l-0.1-1.5L882,413L882,413z"/>
<path id="santa_isabel" fill="#FFFFFF" d="M884.9,411.7l1,2.5l2,2.4l1.1-1.8l-1.5-2.5L884.9,411.7L884.9,411.7z"/>
<path id="malaita" fill="#FFFFFF" d="M890,415.4l0.6,3.1l1.4,1.9l1.2-2.4L890,415.4L890,415.4z"/>
<path id="santa_ana" fill="#FFFFFF" d="M891.6,422.3l-0.5,0.9l1.7,2.2l1.2,0.1l-0.7-2.9L891.6,422.3L891.6,422.3z"/>
<path id="rennell" fill="#FFFFFF" d="M887.9,426.7l-1.8,0.8l1.5,2.1l1.3-0.7L887.9,426.7L887.9,426.7z"/>
<path id="espiritu_santo" fill="#FFFFFF" d="M905.7,439.9l-1.2,1.7l0.5,1.9l0.6,0.4l1.1-1.5L905.7,439.9L905.7,439.9z"/>
<path id="malakula" fill="#FFFFFF" d="M906.3,445l0.1,1.4l1.3,0.4l0.9-0.5l-0.9-1.5L906.3,445L906.3,445z"/>
<path id="efate" fill="#FFFFFF" d="M908.3,457l-0.6,0.9l0.9,1l1.5-0.5L908.3,457L908.3,457z"/>
<path id="palawan" fill="#FFFFFF" d="M774.2,340.2l-0.9,1.6l-0.5,2l-4.8,6.1l0.3,1.2l2-0.3l6.2-6.9L774.2,340.2L774.2,340.2z"/>
<path id="negros" fill="#FFFFFF" d="M781.9,337.9l-0.1,5l1.8,1.8l0.7,3.6l1.8,0.4l0.9-2.2l-1.4-1.1l-0.4-6.3L781.9,337.9
	L781.9,337.9z"/>
<path id="cebu" fill="#FFFFFF" d="M787.1,339.8l-0.1,4.4l1,1.7l1.8-2.1l-0.5-3.9L787.1,339.8L787.1,339.8z"/>
<path id="samar" fill="#FFFFFF" d="M788.2,336l1.8,2.4l0.9,2.3h1.6l-0.3-4l-1.8-1.2L788.2,336L788.2,336z"/>
<path id="path7462" fill="#FFFFFF" d="M791.8,345l0.4,2.9l-3.3,2.7l-2.8,0.3l-3,3.2l0.1,1.5l2.8-0.9l1.9-1.2l1.6,4.1l2.9,2l1.2-0.4
	l1-1.2l-2.3-2.3l1.3-1.1l1.5,1.2l1-1.7l-1-2.1l-0.2-4.7L791.8,345L791.8,345z"/>
<path id="luzon" fill="#FFFFFF" d="M776.2,315.6l-2.6,1.8l-0.3,5.8l4,7.8l1.3,1.1l1.7-1.2l3,0.5l0.6,2.6l2.2,0.2l1-1.4l-1.3-1.8
	l-1.6-1.5l-3.4-0.4l-1.8-3l2.1-3.2l0.2-2.8l-1.4-3.6L776.2,315.6L776.2,315.6z"/>
<path id="mindoro" fill="#FFFFFF" d="M777.5,332.9l0.8,2.7l1.3,0.9l1-1.2l-1.5-2.1L777.5,332.9L777.5,332.9z"/>
<path id="hainan" fill="#FFFFFF" d="M744.7,312.9l-2.4,0.7l-1.7,2.1l1.4,2.8l2.1,0.2l2.4-2.1l0.6-2.8L744.7,312.9L744.7,312.9z"/>
<path id="taiwan" fill="#FFFFFF" d="M772.3,291l-3.5,2.7l-0.2,5.2l3.1,3.6l0.8-0.7L772.3,291L772.3,291z"/>
<path id="kyushu" fill="#FFFFFF" d="M788.1,259.1l-1.6,1.6l0.7,2.3l1.4,0.1l1,5l1.2,1.2l2-1.8l0.9-3.3l-2.5-3.6L788.1,259.1
	L788.1,259.1z"/>
<path id="shikoku" fill="#FFFFFF" d="M796.9,255.8l-2.8,2.6l-0.1,3l0.7,0.9l3.7-3.2l-0.3-3.2L796.9,255.8L796.9,255.8z"/>
<path id="honshu" fill="#FFFFFF" d="M793,249.7l-4.9,5.6l0.9,1.4l2.4,0.3l4.5-3.5l3.2-0.6l2.9,3.4l2.2-0.8l0.9-3.3l4.1-0.1l4-4.8
	l-2.1-8l-1-4.2l2.1-1.7l-4.8-7.2l-1.2,0.1l-2.6,2.9v2.4l1.2,1.4l0.4,6.4l-3,3.7l-1.7-1.1l-1.3,3l-0.3,2.8l1,1.6l-0.7,1.2l-2.2-1.8
	h-1.5l-1.3,0.8L793,249.7L793,249.7z"/>
<path id="hokkaido" fill="#FFFFFF" d="M801.3,206.1l-1.5,1.4l0.8,2.9l1.3,1.4l-0.1,4.4l-1.7,0.7l-1.3,3l3.9,5.4l2.6-0.9l0.5-1.4
	l-2.8-2.5l1.7-2.2l1.8,0.3l1.4,1.5l0.1-3.2l3.9-3.2l2.2-0.6l-1.8-3.1l-0.9-1.4l-1.4,1l-1.2,1.5l-2.7-0.6l-2.8-1.8L801.3,206.1
	L801.3,206.1z"/>
<path id="iturup" fill="#FFFFFF" d="M815.7,203.1l-2.7,3.8l0.2,1.8l1.3-0.6l3.2-3.9L815.7,203.1L815.7,203.1z"/>
<path id="urup" fill="#FFFFFF" d="M819.2,197.6l-1,2.6l0.1,1.7l1.6-1.1l1.5-3.1v-1.2L819.2,197.6L819.2,197.6z"/>
<path id="paramushir" fill="#FFFFFF" d="M824.9,174.7l-1.2,1.5l0.1,2.4l1.2-0.1l1.9-3.4L824.9,174.7L824.9,174.7z"/>
<path id="onekotan" fill="#FFFFFF" d="M822.6,180.6v4.2l1.3,0.5l1-1.5v-3.3L822.6,180.6L822.6,180.6z"/>
<path id="sakhalin" fill="#FFFFFF" d="M783.5,165.3l-0.1,6.2l7.7,11.9l2.8,10.4l4.9,9.2l1.9,0.7l1.6-1.4l0.8-2.2l-7-7.6l0.2-3.9
	l1.5-0.7l0.4-2.3l-13.7-19.4L783.5,165.3L783.5,165.3z"/>
<path id="st._lawrence_island" fill="#FFFFFF" d="M866.1,81.1l-2.4,1.5l-0.6,2l1.1,1.3l2.5-0.8l2.5,0.8l1.4,0.4l-0.1-4.6L866.1,81.1
	L866.1,81.1z"/>
<path id="madagascar" fill="#FFFFFF" d="M577.1,415.6l-2.1,5.1l-3.7,6.4l-6.4,0.5l-2.7,3.2l0.5,9.8l-4,4.6l0.5,7.8l3.3,3.8l4-0.5
	l4-2.9l-0.9-4.6l9.1-15.8l-1.8-2l1.8-3.8l2,0.6l0.6-1.5l-1.8-7.8l-1.1-3.2L577.1,415.6L577.1,415.6z"/>
<path id="grande_comore" fill="#FFFFFF" d="M562.5,413.9l0.5,1.5l2,0.3l0.8-2L562.5,413.9L562.5,413.9z"/>
<path id="mayotte" fill="#FFFFFF" d="M565.4,417l0.8,1.7h1.2l0.6-2.1L565.4,417L565.4,417z"/>
<path id="guadeloupe" fill="#FFFFFF" d="M261.4,326l-1.5,0.6l0.5,1.3l1.8-1.1l-0.4-0.4L261.4,326L261.4,326z"/>
<path id="dominica" fill="#FFFFFF" d="M263.9,327.6l-0.9,1.9l1.1,1.4l1.3-1.1L263.9,327.6L263.9,327.6z"/>
<path id="martinique" fill="#FFFFFF" d="M266.9,332.7l-1.1,1l0.8,1.6l1.5-0.4L266.9,332.7L266.9,332.7z"/>
<path id="st._lucia" fill="#FFFFFF" d="M266.8,336.7l-0.7,1.5l1.1,1.2l1.5-0.8L266.8,336.7L266.8,336.7z"/>
<path id="st._vincent" fill="#FFFFFF" d="M266.9,340.5l-1.2,0.9l1,1.8l1.6-0.9L266.9,340.5L266.9,340.5z"/>
<path id="grenada" fill="#FFFFFF" d="M265.4,344l-1.1,1.1l0.4,0.7h1.4l0.4-1.2L265.4,344L265.4,344z"/>
<path id="trinidad" fill="#FFFFFF" d="M267.1,347.5l-1.1,1l-1.1,0.2v1.4l2.1,2l0.9-1.4l0.5-1.6l-0.2-1.3L267.1,347.5L267.1,347.5z"
	/>
<path id="puerto_rico" fill="#FFFFFF" d="M255.9,323.7l-2.6-0.9l-2.1,1.3l1.1,1.2l3.6,0.5L255.9,323.7L255.9,323.7z"/>
<path id="haiti-dominican_border" fill="#FFFFFF" d="M235.7,318.1l-1.7,1.7l1.9,0.8l0.3,2.4l-4.2,0.4l0.4,2.3l1.2,0.1l0.7-1.1
	l4.9,0.2l0.9,1.7l1.1-1.3l3.3-0.9l2.9,0.6l0.3-1.8l-5.3-3.5l-3.4-1.3L235.7,318.1L235.7,318.1z"/>
<path id="domincan_republic" fill="#FFFFFF" d="M247.9,323.1l-5.3-3.5l-2.5-0.9l-0.8,6l0.9,1.7l1.1-1.3l3.4-0.9l2.9,0.6L247.9,323.1
	L247.9,323.1z"/>
<path id="haiti" fill="#FFFFFF" d="M235.7,318.1l3.4,0.4l-0.4,4.2l-0.3,2.2l-4-0.2l-0.7,1.1l-1.2-0.1l-0.4-2.3l4.2-0.4l-0.3-2.4
	l-1.9-0.8L235.7,318.1L235.7,318.1z"/>
<path id="falklands_west" fill="#FFFFFF" d="M292.8,550.9l-2.6-0.3l-2.6,1.8l1.9,2.1L292.8,550.9L292.8,550.9z"/>
<path id="falklands_east" fill="#FFFFFF" d="M295.4,549.5l-0.9,2.8l-2.5,2.2l0.1,0.7l4.2-1.6l1.8-2.2L295.4,549.5L295.4,549.5z"/>
<path id="iceland" fill="#FFFFFF" d="M391.2,160l-2-1.1l-2.6,1.7l-2.3,2.1l0.1,1.2l2.9,0.4l-0.2,2.1l-1,1.1l0.2,0.7l2.9,0.2v3.4
	l4.2,0.7l2.5,1.4l2.8,0.1l4.8-2.4l3.7-4.9l0.1-3.3l-2.3-1.9l-1.9-1.6l-0.9,0.6l-1.3,1.7l-1.5-0.2l-1.5-1.6l-1.9,0.2l-2.8,2.3
	l-1.7,1.8l-0.9-0.8l-0.1-2l0.9-0.6L391.2,160L391.2,160z"/>
<path id="spitsbergen" fill="#FFFFFF" d="M473.1,96.6l-1.6-1.7l-3.7,1.8h-6.7l-1.1,3.9l3.8,3.3l1.6-0.2l2.4-4l2,1.4l-1.4,2.8
	l-0.7,4.2l1.6,2.6l3.5-5.9l4.6-5.6l-1.8-1.5L473.1,96.6L473.1,96.6z"/>
<path id="nordaustlandet" fill="#FFFFFF" d="M475.1,89.5l-3,2.7l1.8,2.7h3.2l1.3,1.8l3.9,2l4.5-2.6l3.1-2.6l-1.1-2.1l-3.1-1.8
	l-2.2,2l-1.5-1.9l-1.2,0.1l-1.5,3.3l-2.2-2.3l-0.2-1.5L475.1,89.5L475.1,89.5z"/>
<path id="edgeoya" fill="#FFFFFF" d="M481.8,101.8l-2.4,2.1l-2,1.5l0.9,1.7l1.9,0.6l3.1-1.4l1.4-1.8l-1.3-2.1L481.8,101.8
	L481.8,101.8z"/>
<path id="prince_george" fill="#FFFFFF" d="M532.7,81.5l1.7,0.7l-1.2,2.1v3l-2.6,1.6h-2.7l-1.5-1.9l0.2-2.1l1.2-1.6h2.4L532.7,81.5
	L532.7,81.5z"/>
<path id="salisbury" fill="#FFFFFF" d="M539.2,79.6v2.1l1.7,1.4l2.4-0.2l2.1-1.9v-1.4h-1.9l-1.5,0.5l-1.2-1.4L539.2,79.6L539.2,79.6
	z"/>
<path id="wilczek" fill="#FFFFFF" d="M549,79.7l1.2,2.6l2.4,0.2l1.7-0.7l-0.9-2.4l-2.2-0.5L549,79.7L549,79.7z"/>
<path id="bell" fill="#FFFFFF" d="M558.8,76.3l-1.9-0.4l-1.7,1.7l0.9,1.6l0.5,2.4l2.2-1.7l0.5-1.9L558.8,76.3L558.8,76.3z"/>
<path id="novaya_zemlya_north" fill="#FFFFFF" d="M569.3,94.7l-0.5,2.4l-4,3.5l-8.4,1.9l-6.9,11.4l-1.2,3.3l6.9,1.7l1-4.2l2.1-6.4
	l5.3-2.8l4.5-3.5l3.3-1.4h1.7v-4.7L569.3,94.7L569.3,94.7z"/>
<path id="novaya_zemlya_south" fill="#FFFFFF" d="M547.1,120l4.7,0.5l1.5,5.4l4,4.2l-1.4,2.8h-2.4l-2.2-2.6l-5-0.2l-2.1-2.8v-1.9
	l3.1-0.9L547.1,120L547.1,120z"/>
<path id="komsomolets" fill="#FFFFFF" d="M619.8,60.8l-2.2-1.4H615l-0.5,1.6l-2.8,1.6l-2.1,0.7l-0.3,2.1l4.8,0.3L619.8,60.8
	L619.8,60.8z"/>
<path id="october" fill="#FFFFFF" d="M625.1,61.3l-1.2,2.6l-2.4-0.2l-3.8,2.8l-1,3.5h2.4l1.4-2.3l3.3,2.4l3.1-1.4l2.2-1.9l-0.9-3
	l-1.2-2.1L625.1,61.3L625.1,61.3z"/>
<path id="bolshevik" fill="#FFFFFF" d="M630.1,63.3l1.2,4.9l1.9,4.5l2.1-3.6l4-0.9v-2.6l-2.6-1.9L630.1,63.3L630.1,63.3z"/>
<path id="kotelny" fill="#FFFFFF" d="M724.6,55.5l2.7,2.3l1.9-0.8l0.6-3.2l-3.9-2.7l-2.6,1.7l-6.3,0.6v2.8l-6.6,0.1v4.6l7.7,5.8
	l2-1.5l-0.5-4.1l4.9-1.2l-1-1.9l-1.8-1.8L724.6,55.5L724.6,55.5z"/>
<path id="novaya_sibir" fill="#FFFFFF" d="M731.8,52.8l1.8,3.4l7-0.8l1.9-2.5l-0.5-2.1l-1.9-0.8l-1.8,1.4l-5.2,1.1L731.8,52.8
	L731.8,52.8z"/>
<path id="lyakhovsky" fill="#FFFFFF" d="M731.3,66l-3.5-0.9l-2,2.2l-0.9,2.9l4.7-0.5l3.6-1.8L731.3,66L731.3,66z"/>
<path id="sri_lanka" fill="#FFFFFF" d="M665.4,350.7l0.2,2.7l0.2,2l-1.5,0.2l0.7,4.5l2.2,1.2l3.4-2l-1-4.7l0.2-1.7l-3.2-3
	L665.4,350.7L665.4,350.7z"/>
<path id="cuba" fill="#FFFFFF" d="M205.7,309.6v1.3l5.3,0.1l2.5-1.5l0.4,1.1l5.2,1.3l4.6,4.2l-1.1,1.5l0.2,1.7l3.9,1l3.9-1.8
	l1.7-1.8l-2.5-1.3l-12.9-7.6l-4.5-0.5L205.7,309.6L205.7,309.6z"/>
<path id="bimini" fill="#FFFFFF" d="M224.4,301.8l-1.3-0.4l-0.1,2.4l1.6,1.6l1.1-1.6L224.4,301.8L224.4,301.8z"/>
<path id="andros" fill="#FFFFFF" d="M226.9,305.6l-1.7,1l1.6,2.3l0.9-1.2L226.9,305.6L226.9,305.6z"/>
<path id="inagua" fill="#FFFFFF" d="M232.6,307.4l-1.8-0.1l0.2,1.2l1.4,2l1.2-1.3L232.6,307.4L232.6,307.4z"/>
<path id="eleuthera" fill="#FFFFFF" d="M231.7,305l-3-1.3l-0.6-3l1.2-0.5l1.2,2.3l1.2,0.9L231.7,305L231.7,305z"/>
<path id="grand_bahama" fill="#FFFFFF" d="M228.8,298.9l-1.6-0.4l-0.3-2l-1.6-0.6l1.1-1.1l1.9,0.7l1.4,0.9L228.8,298.9L228.8,298.9z
	"/>
<path id="jamaica" fill="#3498DB" d="M223.8,322.3l-3.5,0.9v1l2,1.2h2.1l1.4-1.6L223.8,322.3L223.8,322.3z"/>
<path id="irian_jaya" fill="#FFFFFF" d="M816.8,382l-4.2,0.5l-2.7,2l1.1,2.2l4.5,0.8v0.8l-2.9,2.3l1.4,4.9l1.4,0.1l1.2-4.8h2.2
	l0.9,4.7l10.8,9l0.3,7l3.7,4l1.7-0.1l0.4-24.7l-6.3-4.4l-5.9,4l-2.1,1.3l-3.5-2.2l-0.1-7.1L816.8,382L816.8,382z"/>
<path id="alaska_1_" fill="#FFFFFF" d="M77.9,87.6l-8.4,2l1.7,9.5l9.1,2.5l0.5,2l-13.6,4.2l-7.7,12.7l2.7,13.4l4.4,3l3.5-3.2l1,2
	l-4.2,5L50.8,148l-10.4,2.5l-0.2,3.7l23.9-7l9.9-2.7l9.1-11.2l10.1-6.7l-5.2,8.7l5.7,0.8l9.6-4.2l1.7,7l6.7,1.5l6.9,6.7l0.5,5
	l-1,1.2l1.2,4.7h1.7l0.2-8h2l0.5,19.6l4.9-4.2l-3.5-20.4h-5.2l-5.7-7.2l27.9-47.2l-27.6-21.6l-30.8,6l-1.2,9.5l6.7,4l-2.5,6.5
	L77.9,87.6L77.9,87.6z"/>
<path id="banks" fill="#FFFFFF" d="M188.6,78.6l0.2,4l-8,8.3l2,6.7l5.8-1.6l3.3-4.9l8.4-3.1l6.9-0.4l-5.3-5.8l-2.7,2l-2-0.7
	l-1.1-2.5l-2.4-2.5L188.6,78.6L188.6,78.6z"/>
<path id="prince_patrick" fill="#FFFFFF" d="M199,66.7l-1.8,3.1l8.6,3.1l3.1-4.7l1.3,3.1h2.2l4.2-4.7l-5.1-1.3l-2-1.6l-2.7,2.7
	L199,66.7L199,66.7z"/>
<path id="eglinton" fill="#FFFFFF" d="M214.1,73l-6.9,2.9v2.2l8.9,3.4l-2,2.2l1.3,2.9l5.5-2.5h4.7l2.2,3.6l3.8-3.8l-0.9-3.6
	l-3.1,1.1l-0.4-4.5l1.6-2.7h-1.6l-2.4,1.6l-1.1,0.9l0.7,3.1l-1.8,1.3l-2.7-0.2l-0.7-4L214.1,73L214.1,73z"/>
<path id="mackenzie_king" fill="#FFFFFF" d="M223.2,66.1l-0.7,2.2l4.2,2l3.1-1.8l-0.2-1.3L223.2,66.1L223.2,66.1z"/>
<path id="king_christian" fill="#FFFFFF" d="M226.5,62.3l-3.1,1.1l0.2,1.6l6.9-0.5l-0.2-1.6L226.5,62.3L226.5,62.3z"/>
<path id="ellef_ringnes" fill="#FFFFFF" d="M241.3,66.1l-0.4,1.6l-1.1,1.6v2.2l4.2-0.7l4.4,3.8h1.5v-3.8l-4.4-4.9L241.3,66.1
	L241.3,66.1z"/>
<path id="amund_ringnes" fill="#FFFFFF" d="M252.6,70.5l1.8,2l-1.5,2.7l1.1,2.9l4.9-2.7v-2l-2.9-3.3L252.6,70.5L252.6,70.5z"/>
<path id="axel_heiberg" fill="#FFFFFF" d="M259.1,65.4l0.2,3.6h6l1.5,1.3l-0.2,1.6l-5.3,0.7l3.8,5.1l5.1,0.9l7.1-3.1L267,60l-3.1,2
	l0.2,2.7l-3.5-1.3L259.1,65.4L259.1,65.4z"/>
<path id="victoria" fill="#FFFFFF" d="M207.4,90.6l-8.4,2.2l-4.9,4.2l0.4,4.7l8.9,2.7l-2,4.5l-6.4-4l-1.8,3.3l4.2,2.9l-0.2,4.7
	l6.4,1.8l7.8-0.4l1.3-2.5l5.8,6.5l4-1.3l0.7-4.5l2.9,2l0.4-4.5l-3.6-2.2l0.2-14.1l-3.1-2.5l-3.3,4.5L207.4,90.6L207.4,90.6z"/>
<path id="prince_of_wales" fill="#FFFFFF" d="M234.5,100.5l-2.9-1.3l-1.6,2l3.1,4.9l0.2,4.7l6.6-4v-5.8l2.4-2.5l-2.4-1.8h-4
	L234.5,100.5L234.5,100.5z"/>
<path id="prescott" fill="#FFFFFF" d="M248.7,98.5l-4.7,3.8l1.1,4.7h2.9l1.3-2.5l2,2l2-0.2l5.3-4.5L248.7,98.5L248.7,98.5z"/>
<path id="cornwallis" fill="#FFFFFF" d="M248.2,91.1l-1.1,2.2l4.9,1.8l1.3-2L248.2,91.1L248.2,91.1z"/>
<path id="bathurst" fill="#FFFFFF" d="M245.3,82.6l-4.9,0.7l-2.9,2.7l5.3,0.2l-1.5,4l1.1,1.8l1.5-0.2l3.8-6L245.3,82.6L245.3,82.6z"
	/>
<path id="devon" fill="#FFFFFF" d="M253.8,81l-2.7,0.9l0.4,3.6l4.4,2.9l0.2,2.2l-1.3,1.3l0.7,4.5l17.1,5.6l4.7,1.6l4.7-4l-5.5-4.5
	l-5.1,1.3l-7.1-0.7l-2.7-2.7l-0.7-7.4l-4.4-2.2L253.8,81L253.8,81z"/>
<path id="baffin" fill="#FFFFFF" d="M267.7,104.3l-4.9-0.5l-5.8,2.2l-3.1,4.2l0.9,11.6l9.5,0.4l9.1,4.5l6.4,7.4l4.9-0.2l-1.3,6.9
	l-4.4,7.4l-4.9,2.2l-3.5-0.7l-1.8-1.6l-2.7,3.6l1.1,3.6l3.8,0.2l4.7-2.2l4,10.3l10,6.5l6.9-8.7l-5.8-9.4l3.3-3.8l4.7,7.8l8.4-7.4
	l-1.5-3.3l-5.8,1.8l-4-10.9l3.8-6.2l-7.5-8l-4.2,2.9l-4-8.7l-8.4,1.1l-2.2-10.5l-6.9,4.7l-0.7,5.8H262l0.4-5.1L267.7,104.3
	L267.7,104.3z"/>
<path id="bylot" fill="#FFFFFF" d="M277.7,108.3l-1.8,1.8l1.5,2.5l7.3,0.9l-4.7-4.9L277.7,108.3L277.7,108.3z"/>
<path id="ellesmere" fill="#FFFFFF" d="M270.6,83v2l-4.9,1.1l1.3,2.2l5.5,2.2l6.2,0.7l4.4,3.1l4.4-2.5l-3.1-3.1h4l2.4-2.7l6-0.9
	v-1.3l-3.3-2.2l0.4-2.5l9.3,1.6l13.8-5.4l-5.1-1.6l1.3-1.8H324l1.8-1.8l-21.5-7.6l-5.1-1.8l-5.5,4l-6.2-5.1l-3.3-0.2l-0.7,4.2
	l-4.2-3.8l-4.9,1.6l0.9,2.5l7.3,1.6l-0.4,3.6l4,2.5l9.8-2.5l0.2,3.4l-8,3.8l-4.9-3.8l-4.4,0.4l4.4,6.3l-2.2,1.1l-3.3-2.9l-2.4,1.6
	l2.2,4.2h3.8l-0.9,4l-3.1-0.5l-4-4.2L270.6,83L270.6,83z"/>
<path id="southhampton" fill="#FFFFFF" d="M250.8,144.5l-4.2,5.3l-0.3,5.9l3.7-2.1h4.5l3.2,2.9l2.9-2.4L250.8,144.5L250.8,144.5z"/>
<path id="newfoundland" fill="#FFFFFF" d="M302.3,213.7l-10.6,10.1l1.1,2.4l12.9,4.8l1.9-3.2l-1.1-5.3l-4.2,0.5l-2.4-2.7l4-4
	L302.3,213.7L302.3,213.7z"/>
<path id="canada" fill="#3498DB" d="M143.1,91.3l2,3l1,4l5,1.2l3.5-3.8l3,1.5l8.5,0.8l6-2.5l1,8.3h3.5v-3.5l3.5,0.2l8.7,10.3
	l5.7,3.5l-3,4.8l1.2,1.2l11.2,2.3l0.2,5l3,0.5l0.8-7.5l4.7-1.2l3.5,5.3l7.5,3.5l3.7,0.8l2.5-3l0.2-4.8l4.5-2.8l1.5,4l-4,7l0.5,3.5
	l2.2-3.5l4.5-4l0.2-5.3l-2.5-4l0.8-3.3l6-3l2.7,2l0.5,17.6l4.2-3.8l2.5,1.5l-3.5,6l4.5,1l6.5-10l5.5,5.8l-2.2,10.3l-5.5,3l-5.2-2.5
	l-9.5,2l1,3.3l-2.5,4l-7.7,1.8l-8.7,6.8l-7.7,10.3l-1,3.3l5.2,2l2,5l7.2,7.3l11.5,5l-2.5,11.5l-0.2,3.3l3,2l4-5.3l0.5-10l6.2-0.2
	l3-5.8l0.5-8.8l8-15.6l10,3.5l5.2,7.3l-2.2,7.3l4,2.3l9.7-6.5l2.7,17.8l9,10.8l0.2,5.5l-10,2.5l-4.7,5l-10-2.3l-5-0.2l-8.7,6.8
	l5.2-1.2l6.5-1.2l1.2,1.5l-1.7,5.5l0.2,5l3,2l3-0.8l1.5-2.3h2l-3.2,6l-6.2,0.2l-2.7,4h-3.5l-1-3l5-5l-6,2l-0.3-8.5l-1.7-1l-5.2,2.3
	l-0.5,4.3h-12l-10.2,7l-13.7,4.5l-1.5-2l6.9-10.3l-3.9-3.8l-2.5-4.8l-5.1-3.9l-5.4-0.5l-9.8-6.8l-70.7-11.6l-1.2-4.8l-6.5-6v-5
	l1-4.5l-0.5-2.5l-2.5-2.5l-0.5-4l6.5-4.5l-4-21.6l-5.5-0.2l-5-6.5L143.1,91.3L143.1,91.3z"/>
<path id="usa" fill="#3498DB" d="M133.6,201l-1,4l-3.5-2.3h-1.7l-1,4.3l-12.2,27.4l3.2,23.8l4,2l0.8,6.5h8.2l8,6l15.7,1.5l1.7,8
	l2.5,1.8l3.5-3.5l2.7,1.2l2.5,11.5l4.2,2.8l3.5-6.5l10.7-7.8l7,3.3l6,0.5l0.2-3.8l12.4,0.2l2.5,2.8l0.5,6.3l-1.5,3.5l1.7,6h3.7
	l3.7-5.8l-1.5-2.8l-1.5-6l2.2-6.8l10.2-8.8l7.7-2.3l-1-7.3l10.7-11.5l10.7-1.8l-1.7-6l10.5-6v-8l-1-0.5l-3.7,1.2l-0.5,4.9l-12.4,0.1
	l-9.7,6.5l-15.3,5l-2.4-3l6.9-10.5l-3.4-3.3l-2.3-4.4l-4.8-3.9l-5.2-0.4l-9.9-6.8L133.6,201L133.6,201z"/>
<path id="haida_gwaii" fill="#FFFFFF" d="M118.7,171.1l-1.7,3.3l0.6,2.3l1.1,0.7l-0.3,0.9l-1.2,0.3l0.3,3.4l1.3,1.3l1-1.1l-1.3-3.3
	l0.8-2.7l1.9-2.5l-1.4-2.3L118.7,171.1L118.7,171.1z"/>
<path id="vancouver" fill="#3498DB" d="M124.3,190.6l-1.5,0.6l2.8,3.3l0.7,3.9l2.8,3l2.4-0.4V197l-2.9-1.8L124.3,190.6L124.3,190.6z
	"/>
<path id="guatemala" fill="#FFFFFF" d="M179.7,334.2l5.9,4.3l6-7.4l-1-1.5l-2-0.1v-4.4l-1.5-0.9l-4.6,1.4l1.8,4.1L179.7,334.2
	L179.7,334.2z"/>
<path id="honduras" fill="#FFFFFF" d="M192.4,331.5l9.2-0.4l2.7,3.3l-1.7-0.4l-3.3,0.1l-4.3,4l-1.8,4.1l-1.2-0.6l0-4.5l-2.7-1.8
	L192.4,331.5L192.4,331.5z"/>
<path id="el_salvador" fill="#FFFFFF" d="M186.5,338.9l4.7,2.3l-0.1-3.7l-2.4-1.5L186.5,338.9L186.5,338.9z"/>
<path id="nicaragua" fill="#FFFFFF" d="M202.6,334.8l2.2,0.4l0.1,4.5l-2.6,7.3l-6.9-0.7l-1.5-3.5l2-4.3l3.9-3.6L202.6,334.8
	L202.6,334.8z"/>
<path id="costa_rica" fill="#FFFFFF" d="M202.2,347.7l1.4,2.7l1.1,1.5l-1.5,4.5l-2.9-2l-4.7-4.3v-2.9L202.2,347.7L202.2,347.7z"/>
<path id="panama" fill="#FFFFFF" d="M205.4,352.3l-1.5,4.6l4.8,1.2l3,0.6l0.5-3.5l3.2-1.6l2.9,1.5l1.1,1.8l1.4-0.2l1.1-3.2l-3.6-1.5
	l-2.7-1.5l-2.7,1.8l-3.2,1.6l-3.3-1.3L205.4,352.3L205.4,352.3z"/>
<path id="colombia" fill="#3498DB" d="M238.6,342.5l-2.1-0.2l-13.6,11.2l-1.4,4l-1.9,0.2l0.8,8.7l-4.8,11.6l5.2,4.4l6.6,0.4l4.5,6.7
	l6.6,0.2l-0.2,5h2.5l2.7-9.1l-2.5-3.1l0.6-5.8l5.2-0.4l-0.6-13.5l-11.6-3.7l-2.7-7.3L238.6,342.5L238.6,342.5z"/>
<path id="venezuela" fill="#FFFFFF" d="M235.3,348.6l0.4,2.6l3.2,1l0.7-4.8l3.4-3.5l3.4,4l7.9,2.1l6.7-1.4l4.5,5.6l3.4,2.1l-3.8,5.7
	l1.3,4.3l-2.1,2.7l-2.2,1.9l-4.8-2.4l-1.1,1.1v3.5l3.5,1.7l-2.6,2.8l-2.6,2.8l-3.4-0.3l-3.5-3.8l-0.7-14.3l-11.8-4l-2.1-6.3
	L235.3,348.6L235.3,348.6z"/>
<path id="guyana" fill="#FFFFFF" d="M269.9,356.8l7.2,6.5l-2.9,3.3l-0.2,2l3.8,3.9l-0.1,3.7l-6.6,2.5l-3.9-5.3l0.8-6.4l-1.7-4.8
	L269.9,356.8L269.9,356.8z"/>
<path id="suriname" fill="#FFFFFF" d="M278,363.8l2,1.9l3.2-2l2.9,0.1l-0.4,1.1l-1.2,2.5l-0.2,6.3l-5.8,2.3l0.3-4l-3.7-3.5l0.2-1.8
	L278,363.8L278,363.8z"/>
<path id="guyane" fill="#FFFFFF" d="M287,364.5l5.9,3.6l-3.1,6.1l-1.1,1.4l-3.2-1.9l0.1-6.5L287,364.5L287,364.5z"/>
<path id="ecuador" fill="#FFFFFF" d="M215,378.5l-4.7,2.9l-0.3,4.4l-0.9,1.4l3,2.9l-1.3,1.4l0.3,3.6l5.3,1.3l8.1-9.5l0-3.3l-3.9-0.2
	L215,378.5L215,378.5z"/>
<path id="peru" fill="#FFFFFF" d="M209.9,392.2l-1.9,2l0.1,3.1l16.9,30.9l17.6,11.3l2.7-4.6l0.6-10l-1.4-6.2l-4.8-8.1l-2.9,0.9
	l-1.3,1.4l-5.7-6.5l1.4-7.7l6.6-4.3l-0.5-4l-6.7-0.3l-3.5-5.9l-1.9-0.6l0.1,3.5l-8.7,10.3l-6.5-1.6L209.9,392.2L209.9,392.2z"/>
<path id="bolivia" fill="#FFFFFF" d="M243.5,415.5l8.2-3.6l2.7,0.3l1.8,7.6l12.5,4.2l2.1,6.4l5.2,0.6l2.2,5.5l-1.5,5l-8.4,0.6
	l-3.1,8l-6.6-0.1l-2.1-0.4l-3.8,3.7l-1.9-0.2l-6.5-15l1.8-2.7l0.6-10.6l-1.6-6.3L243.5,415.5L243.5,415.5z"/>
<path id="paraguay" fill="#FFFFFF" d="M276.6,442.2l2.2,2.4l-0.3,5.1l6.3-0.4l4.8,6.1l-0.4,5.5l-3.1,4.7l-6.3,0.3l-0.3-2.6l1.8-4.3
	l-6.2-3.9H270l-3.9-4.2l2.8-8.1L276.6,442.2L276.6,442.2z"/>
<path id="uruguay" fill="#FFFFFF" d="M285.2,474.6l-2,2.2l0.9,11.8l6.4,1.9l8.2-8.2L285.2,474.6L285.2,474.6z"/>
<path id="argentina" fill="#FFFFFF" d="M290.3,460.9l1.9,1.8l-7.4,11l-2.6,2.9l0.9,12.5l5.7,6.9l-4.8,8.3l-3.6,1.6h-4.1l1.2,6.5
	l-6.5,2.2l1.5,5.5l-3.9,12.4l4.8,3.9l-2.6,6.4l-4.4,6.9l2.3,4.8l-5.7,0.9l-4.7-5.7l-0.8-17.9l-7.2-30.3l2.2-10.6l-4.7-13.5l3.1-17.6
	l2.9-3.4l-0.7-2.6l3.7-3.3l8.2,0.6l4.6,4.9l5.3,0.1l5.4,3.3l-1.6,3.7l0.4,3.8l7.6-0.4L290.3,460.9L290.3,460.9z"/>
<path id="tierra_del_fuego_chile" fill="#FFFFFF" d="M269.9,556.8l-4.3,9.4l7.4,0.8l0.1-6.2L269.9,556.8L269.9,556.8z"/>
<path id="tierra_del_fuego_argentina" fill="#FFFFFF" d="M273.8,561.5l0.3,5.7l4.4-0.4l3.8-2.5l-6.3-1.3L273.8,561.5L273.8,561.5z"
	/>
<path id="chile" fill="#FFFFFF" d="M268.4,555.3l-3.2,3.5l-0.4,4.2l-6.2-3.5L252,550l-1.9-3.4l2.7-3.5l-0.3-4.4l-3.1-1.3l-2.5-1.8
	l0.5-2.5l3.2-0.9l0.6-14.3l-5-2.9l-3.3-74.6l0.9-1.5l6.4,14.9l2.1,0l0.7,2.4l-2.7,3.3l-3.1,17.9l4.5,13.8l-2.1,10.4l7.3,30.6
	l0.8,17.9l5.2,6L268.4,555.3L268.4,555.3z"/>
<path id="chiloe" fill="#FFFFFF" d="M247.1,517.8l-1.3,2l0.6,3.4l1.3,0.1l0.6-4.3L247.1,517.8L247.1,517.8z"/>
<path id="brazil" fill="#FFFFFF" d="M299.1,481.5l6.2-12l0.2-10.1l11.7-7.5h6.5l5.1-8.7l0.9-16.7l-2.1-4.5l12.4-11.3l0.5-12.5
	l-16.8-8.2l-20.3-6.3l-9.6-0.9l2.6-5.4l-0.7-8.2l-2.1-0.7l-3.1,6.1l-1.6,2l-4.2-1.8l-14,4.9l-4.7-5.9l0.8-6.1l-4.4,4.5l-4.9-2.6
	l-0.5,0.7l0,2.1l4.2,2.2l-6.3,6.6l-4,0l-4-4.1l-4.5,0.1l-0.6,4.9l2.6,3.2l-3.1,9.9l-3.6,0.3l-5.7,3.6l-1.4,7.1l5,5.3l0.9-1l3.5-0.9
	l3,5l8.5-3.7l3.3,0.2l2.3,8.1l12.2,3.9l2.1,6.4l5.2,0.6l2.5,6.1l-1.7,5.5l2.2,2.9l-0.3,4.3l5.8-0.5l5.4,6.8l-0.4,4.8l3.2,2.7
	l-7.6,11.5L299.1,481.5L299.1,481.5z"/>
<path id="belize" fill="#FFFFFF" d="M189.4,325.1l-0.1,3.6h0.8l2.9-5.3h-1.9L189.4,325.1L189.4,325.1z"/>
<path id="russia" fill="#FFFFFF" d="M802.8,115.6l1.8,6.1l3.5,1l3.5-5.6l-2-3.8l0.8-3.3h5.3l-1.3,2.5l0.5,9.1l-7.5,18.7l0.8,4.1
	l-0.2,6.8l14.1,20.5l2.8,0.8l0.2-16.7l2.8-2.5l-3-6.6l2.5-2.8l-5.5-7.3l-3,0.2l-1-12.1l7.8-2l0.5-3.6l4-1l2.3,2l2.8-11.1l4.8-8.1
	l3.8-2l3.3,0.2v-3.8l-5.3-1l-7.3-6.1l3.5-4.1l-3-6.8l2.5-2.5l3,4.1l7.5,2.8l8.3,0.8l1-3.5l-4.3-4.3l4.8-6.6l-10.8-3.8l-2.8,5.6
	l-3.5-4.6l-19.8-6.8l-18.8,3.3l-2.8,1.5v1.5l4,2l-0.5,4.8l-7.3-3l-16.1,6.3l-2.8-5.8h-11.1l-5,5.3l-17.8-4l-16.3,3.3l-2,5.1l2.5,0.8
	l-0.2,3.8L710.5,85l1,5.1L697,87.5l3.5-6.6l-14.8-0.8l1.3,6.8l-4.8,2.3l-4-3.8l-16.3,2.8l-6.3,5.8l-0.2,3.5l-4,0.2l-0.5-4l12.8-11.1
	v-7.6l-8.3-2.3l-10.8,3.5l-4.5-4.6h-2l-2.5,5.1l2,2.3L623.1,87l-12.3,9.4l-7.5,10.4v4.3l8,3.3l-4,3l-8.5-3l-3.5,3l-5.3-6.1l-1,2.3
	l5.8,18.2l1.5,0.5l4-2l2,1.5v3.3l-3.8-1.5l-2.3,1.8l1.5,3.3l-1.3,8.6l-7.8,0.8l-0.5-2.8l4.5-2.8l1-7.6l-5-6.6l-1.8-11.4l-8-1.3
	l-0.8,4.1l1.5,2l-3.3,2.8l1.3,7.6l4.8,2l1,5.6l-4.8-3l-12.3-2.3l-1.5,4.1l-9.8,3.5l-1.5-2.5l-12.8,7.1l-0.2,4.8l-5,0.8l1.5-3.5V145
	l-5-1.8l-3.3,1.3l2.8,5.3l2,3.5v2.8l-3.8-0.8l-0.8-0.8l-3.8,4.1l2,3.5l-8.5-0.2l2.8,3.6l-0.8,1.5H516l-3.3-2.3l-0.8-6.3l-5.3-2v-2.5
	l11.1,2.3l6,0.5l2.5-3.8l-2.3-4.1l-16.1-6.3l-5.5,1.4l-1.9,1.6l0.6,3.8l2.4,0.4l-0.5,5.9l7.3,17.1L505,181l-0.4,1.9l2.7,1.9
	l-2.4,1.6l-1.6,0l0.3,7.4l2.2,3.1l0,3l2.8,0.3l4.3,1.6l4.6,6.3l0,1.7l-1.5,2.6l3.4-0.2l3.3,1l4.5,6.4l11.1,1L538,228l-3.8,3.3
	l0.8,1.3l-3.8,4l-1,3.8l2.3,3.3l7.3,2.5l3-1.8l19.3,7.3l0.8-2l-4-3.8v-4.8l-2.5-0.8l0.5-4.1l4-4.8l-7.2-5.4l0.5-7.5l7.7-5.1l9,0.5
	l1.5,2.8l9.3,0.5l6.8-3.8l-3.5-3.8l0.8-7.1l17.6-8.6l13.5,6.1l4.5-4.1l13.3,12.7l10-1l3.5,3.5l9.5,1l6.3-8.6l8,3.6l4.3,0.8l4.3-3.8
	l-3.8-2.5l3.3-5.1l9.3,3l2,4.1l4,0.2l2.5-1.8l6.8-0.2l0.8,1.8l7.8,0.5l5.3-5.6l10.8,1.3l3.3-1.3l1-6.1l-3.3-7.3l3.3-2.8H744
	l9.8,11.6l12.6,7.1h3.8l0.5-3l4.5-2.8l0.5,16.5l-4,0.2v4.1l2.3,2.8l-0.4,3.6l1.7,0.7l1-2.5l1.5,0.5l1,1l4.5-1l4.5-13.2l0.5-16.5
	l-5.8-13.2l-7.3-8.9l-3.5,0.5v2.8l-8.5-3.3l3.3-7.1l2.8-18.7l11.6-3.5l5.5-3.5h6l-1.5,2l1.5,2.5l5.3-5.6l3,0.2l-0.5-3.3l-4.8-1
	l3.3-11.9L802.8,115.6L802.8,115.6z"/>
<path id="china" fill="#FFFFFF" d="M655.2,212.8l-3.5,8.7l-4.8-0.2l-5,11l4.3,5.4l-8.8,12.1l-4.5-0.8l-3,3.8l0.8,2.3l3.5,0.2
	l1.8,4.1l3.5,0.8l10.8,13.9v7.1l5.3,3.3l5.8-1l7.3,4.3l8.8,2.5l4.3-0.5l4.8-0.5l10-6.6l3.3,0.5l1.2,3l2.8,0.8l3.8,5.6l-2.5,5.6
	l1.5,3.8l4.3,1.5l0.8,4.6l5,0.5l0.8-2.3l7.3-3.8l4.5,0.2l5.3,5.8l3.5-1.5l2.3,0.2l1,2.8l1.8,0.2l2.5-3.5l10-3.8l9-10.9l3-10.4
	l-0.2-6.8l-3.8-0.8l2.3-2.5l-0.5-4l-9.5-9.6v-4.8l2.8-3.5l2.8-1.3l0.2-2.8h-7l-1.3,3.8l-3.3-0.8l-4-4.3l2.5-6.6l3.5-3.8l3.3,0.2
	l-0.5,5.8l1.8,1.5l4.3-4.3l1.5-0.2l-0.5-3.3l4-4.8l3,0.2l1.8-5.6l2.1-1.1l0.2-3.5l-2-2.1l-0.2-5.5l3.8-0.2l-0.2-14.1l-2.7,1.6
	l-1,3.6l-4.5,0l-13.1-7.4l-9.4-11.4l-9.6-0.1l-2.4,2.1l3.1,7.1l-1.1,6.7l-3.9,1.6l-2.2-0.2l-0.2,6.6l2.3,0.5l4-1.8l5.3,2.5v2.5
	l-3.8,0.2l-3,6.6l-2.8,0.2l-9.8,12.9l-10.3,4.6l-7,0.5l-4.8-3.3l-6.8,3.6l-7.3-2.3l-1.8-4.8l-12.3-0.8l-6.5-10.6h-2.8l-2.2-4.9
	L655.2,212.8z"/>
<path id="mongolia" fill="#FFFFFF" d="M658.6,212.9l5.8-7.7l7,3.2l4.8,1.3l5.8-5.3l-4-2.9l2.6-3.7l7.8,2.7l2.7,4.4l4.9,0.1l2.5-1.9
	l5.2-0.2l1.1,1.9l8.7,0.4l5.5-5.6l7.6,0.8l-0.4,7.6l3.3,0.8l4.1-1.9l4.3,2.1l-0.1,1.1l-3.1,0.1l-3.3,6.9l-2.5,0.2l-9.9,12.9
	l-10.1,4.4l-6.3,0.5l-5.2-3.4l-6.7,3.6l-6.6-2l-1.9-4.8l-12.5-0.9l-6.4-10.9l-3.1-0.2L658.6,212.9L658.6,212.9z"/>
<path id="north_korea" fill="#FFFFFF" d="M763.1,237l1.8,0.8l0.6,6.4l3.7,0.2l3.4-4l-1.2-1.1l0.1-4.3l3.2-3.8l-1.6-2.9l1-1.2l0.6-3
	l-1.8-0.8l-1.6,0.8l-1.9,5.9l-3.1-0.3l-3.6,4.3L763.1,237L763.1,237z"/>
<path id="south_korea" fill="#FFFFFF" d="M773.2,240.9l6.2,5l1,4.9l-0.2,2.6l-3,3.4l-2.6,0.1l-3-6.4l-1.1-3l1.2-0.9l-0.3-1.3
	l-1.5-0.7L773.2,240.9L773.2,240.9z"/>
<path id="kazakhstan" fill="#FFFFFF" d="M561.5,231.3l4.1-1.8l4.6-0.2l0.3,7h-2.7l-2,3.3l2.7,4.5l4,2.2l0.4,2.6l1.5-0.5l1.3-1.6
	l2.2,0.5l1.1,2.2h2.8v-2.9l-1.7-5.1l-0.8-4.1l5-2.2l6.8,1.1l4.3,4.3l9.6-0.9l5.4,7.6l6.3,0.3l1.7-2.9l2.2-0.5l0.3-3.2l3.3-0.2
	l1.7,2.1l1.7-4.1l15,2.1l2.5-3.3l-4.3-5.2l5.7-12.4l4.6,0.3l3.2-7.6l-6.3-0.6l-3.6-3.5l-10,1.2l-12.9-12.4l-4.5,4l-13.8-6.2
	l-16.9,8.3l-0.5,5.9l4,4.6l-7.7,4.4l-10-0.2l-2.1-3.1l-7.8-0.4l-7.4,4.8l-0.2,6.5L561.5,231.3L561.5,231.3z"/>
<path id="turkmenistan" fill="#FFFFFF" d="M578.7,250.3l-0.6,2.6h-4.2v3.6l4.5,2.9l-1.4,4v1.9l1.8,0.3l2.5-3.2l5.5-1.2l11.8,4.5
	l0.2,3.2l6.6,0.6l7.4-7.8l-0.9-2.5l-4.9-1.1l-13.8-9l-0.6-3.2h-5.2l-2.3,4.3h-2.3L578.7,250.3L578.7,250.3z"/>
<path id="uzbekistan" fill="#FFFFFF" d="M613.8,261.7l3.1,0.2v-5.3l-2.9-1.7l4.9-6.2h2l2,2.3l5.2-2l-7.2-2.5l-0.3-1.5l-1.7,0.4
	l-1.7,2.9l-7.3-0.2l-5.3-7.6l-9.4,0.9l-4.5-4.4l-6.2-1l-4.5,1.8l2.6,8.7l0,2.9l1.9,0l2.3-4.4l6.2,0.1l0.9,3.4l13.3,8.8l5.1,1.2
	L613.8,261.7L613.8,261.7z"/>
<path id="tajikistan" fill="#FFFFFF" d="M615,254.5l4.1-5.1h1.5l0.5,1.1l-1.9,1.4v1.1l1.2,0.9l6,0.4l2-0.8l0.9,0.2l0.6,1.9l3.6,0.4
	l1.8,3.8l-0.5,1.1l-0.7,0.1l-0.7-1.4l-1.5-0.1l-2.7,0.4l-0.2,2.5l-2.7-0.2l0.1-3.2l-2-1.9l-3,2.5l0.1,1.6L619,262h-1.5l0.1-5.6
	L615,254.5L615,254.5z"/>
<path id="kirgizstan" fill="#FFFFFF" d="M621.6,241.9l-0.3,2.5l0.2,1.6l8.7,2.9l-7.6,3.1l-0.9-0.7l-1.7,1.1l0.1,0.6l0.9,0.4l5.4,0.1
	l2.7-0.8l3.5-4.4l4.4,0.8l5.3-7.3l-14.1-1.9l-2,4.7l-2.5-2.6L621.6,241.9L621.6,241.9z"/>
<path id="afghanistan" fill="#FFFFFF" d="M599,269.7l1.6,12.5l4,0.9l0.4,2.2l-2.8,2.4l5.3,4.3l10.3-3.7l0.8-4.4l6.5-4l2.5-9.4l1.8-2
	l-1.9-3.3l6.3-3.9l-0.8-1.1l-2.9,0.2l-0.3,2.7l-3.9,0l-0.1-3.6l-1.2-1.5l-2.1,1.9l0.1,1.8l-3.2,1.2l-5.8-0.4l-7.6,8L599,269.7
	L599,269.7z"/>
<path id="pakistan" fill="#FFFFFF" d="M608,292.5l2.6,3.9l-0.2,2l-3.5,1.4l-0.2,3.2h4l1.4-1.1h7.5l6.8,6l0.9-2.9h5.1l0.1-3.6l-5.2-5
	l1.1-2.7l5.3-0.4l7.2-14.9l-4-3.1l-1.5-5.2l9.6-0.9l-5.7-8.1l-3-0.8l-1.2,1.5l-0.9,0.1l-5.7,3.6l1.9,3.1l-2.1,2.2l-2.6,9.6l-6.4,4.1
	l-0.9,4.5L608,292.5L608,292.5z"/>
<path id="india" fill="#FFFFFF" d="M655.8,355.7l4.6-2.2l2.7-9.8l-0.1-12.1l15.6-16.8v-4l3.2-1.2l-0.1-4.6l-3.5-6.7l2-3.6l4.3,4
	l5.6,0.2v2.2l-1.7,1.9l0.4,1l3,0.1l0.6,3.4h0.9l2.2-4l1.1-10.5l3.7-2.6l0.1-3.6l-1.5-2.9l-2.3-0.1l-9.2,6.1l0.6,3.9l-6.5,0l-2.3-2.8
	l-1.2,0.2l0.4,3.9l-14-1l-8.7-3.9l-0.5-4.8l-5.8-3.6l-0.1-7.4l-4-4.5l-9.1,0.9l1,4l4.5,3.6l-7.7,15.8l-5.2,0.4l-0.8,1.9l5.1,4.7
	l-0.2,4.8l-5.2-0.1l-0.6,2.4l4.3-0.2l0.1,1.9l-3.1,1.6l2,3.7l3.8,1.2l2.3-1.7l1.1-3.1l1.4-0.6l1.6,1.6l-0.5,4l-1.1,1.9l0.2,3.2
	L655.8,355.7L655.8,355.7z"/>
<path id="nepal" fill="#FFFFFF" d="M656,285.2l0.5,4.3l8.1,3.7l13,1L677,291l-8.7-2.4l-7.3-4.4L656,285.2L656,285.2z"/>
<path id="bhutan" fill="#FFFFFF" d="M680.2,290.8l1.5,2.1l5.2,0l-0.5-2.9L680.2,290.8L680.2,290.8z"/>
<path id="bangladesh" fill="#FFFFFF" d="M680.4,295.8l-1.3,2.4l3.4,6.5l0.1,5l0.6,1.4l4,0.1l2.3-2.2l1.6,1l0.3,3.1l1.3-0.8l0.1-3.9
	l-1.1-0.1l-0.7-3.3l-2.8-0.1l-0.7-1.9l1.7-2.3l0-1.1h-4.9L680.4,295.8L680.4,295.8z"/>
<path id="burma" fill="#FFFFFF" d="M714.3,346.3l-2.8-4.4l2-2.8l-1.9-3.5l-1.8-0.3l-0.3-5.9l-2.7-5.2l-0.8,1.2l-1.8,3l-2.2,0.3
	l-1.1-1.5l-0.6-4l-1.7-3.2l-6.8-6.5l1.7-1.1l0.3-4.7l2.5-4.2l1.1-10.4l3.6-2.5l0.1-3.8l2.2,0.7l3.4,4.9l-2.5,5.4l1.7,4.3l4.2,1.7
	l0.8,4.6l5.7,0.9l-1.6,2.7l-7.2,2.8l-0.8,4.6l5.3,6.8l0.2,3.6l-1.2,1.2l0.1,1.1l3.9,5.8l0.1,6L714.3,346.3L714.3,346.3z"/>
<path id="thailand" fill="#FFFFFF" d="M714.9,313.1l3.2,4.2v5.1l1.1,0.6l5.2-2.5l1,0.3l6.2,7.1l-0.2,4.9l-2-0.3l-1.8-1.1l-1.3,0.1
	l-2.3,3.9l0.5,2.1l1.9,1l-0.1,2.4l-1.3,0.7l-4.6-3.2v-2.8l-1.9-0.1l-0.8,1.2l-0.4,12.6l3,5.4l5.3,5.1l-0.2,1.5l-2.8-0.1l-2.6-3.8
	H717l-3.4-2.7l-1-2.8l1.5-2.4l0.5-2.1l1.6-2.8l-0.1-6.4l-3.9-5.6l-0.2-0.7l1.2-1.3l-0.3-4.4l-5.1-6.5l0.6-3.8L714.9,313.1
	L714.9,313.1z"/>
<path id="malaysia" fill="#FFFFFF" d="M717.5,358.1l2,4.5l0.5,5.9l2.7,4.2l6.5,3.9l2.5,0.2l-0.5-4.1l-2.1-5.2l-3.1-6.6l-0.3,1.2
	l-3.8-0.2l-2.7-3.9L717.5,358.1L717.5,358.1z"/>
<path id="cambodia" fill="#FFFFFF" d="M725.3,342.1l4.1,4.4l7.6-5.6l0.7-8.9l-3.9,2.7l-2-1.1l-2.8-0.4l-1.5-1.1l-0.8,0l-2,3.3
	l0.3,1.5l2.1,1.1l-0.2,3.1L725.3,342.1L725.3,342.1z"/>
<path id="laos" fill="#FFFFFF" d="M720.3,305.6l-2.4,1.2l-2,5.9l3.4,4.3l-0.6,4.7l0.6,0.2l5.6-2.7l7.5,8.4l-0.2,5.3l1.6,0.9l4-3.3
	l-0.3-2.6l-11.6-11l0.1-1.7l1.5-1l-1-2.8l-4.8-0.8L720.3,305.6L720.3,305.6z"/>
<path id="vietnam" fill="#FFFFFF" d="M729.9,347.1l1.2,1.9l0.2,2.1l3.1,0.3l3.8-5.1l3.6-1l1.9-5.2l-0.9-8.3l-3.7-5.1l-3.9-3.1
	l-5-8.5l3.5-5.9l-5.1-5.8l-4.1-0.2l-3.7,2l1.1,4.7l4.9,0.9l1.3,3.6l-1.7,1.1l0.1,0.9l11.5,11.2l0.5,3.3l-0.7,10.4L729.9,347.1
	L729.9,347.1z"/>
<path id="georgia" fill="#FFFFFF" d="M540.3,246.8l3.3,4.3l4.1,1.9l2.5,0l4.3-1.2l1.1-1.7l-12.8-4.8L540.3,246.8L540.3,246.8z"/>
<path id="armenia" fill="#FFFFFF" d="M554.5,252.6l4.8,6.3l-1.4,1.6l-3.4-0.6l-4.2-3.8l0.2-2.5L554.5,252.6L554.5,252.6z"/>
<path id="azerbaijan" fill="#FFFFFF" d="M556.2,250.4l-1,1.7l4.7,6.2l1.6-0.5l2.7,2.8l1.2-5l2.9,0.5l-0.1-1.4l-4.8-4.2l-0.9,2.5
	L556.2,250.4L556.2,250.4z"/>
<path id="iran" fill="#FFFFFF" d="M554.5,260.6l-1.2,1.3l0.1,2l1.5,2.1l5.4,5.9l-0.8,2.4h-0.9l-0.5,2.4l3,3.9l2.8,0.2l5.6,7.8
	l3.2,0.2l2.5,1.8l0.1,3.5l9.7,5.7h3.6l2.2-1.9l2.8-0.1l1.6,3.8l10.5,1.5l0.3-3.9l3.5-1.3l0.2-1.4l-2.8-3.8l-6.2-5l3.2-2.9l-0.2-1.3
	l-4.1-0.6l-1.7-13.7l-0.2-3.1l-11-4.2L582,263l-2.7,3.4l-2.4-0.2l-0.7,0.6l-5.4-0.4l-6.8-5l-2.5-2.8l-1.2,0.3l-2.1,2.4L554.5,260.6
	L554.5,260.6z"/>
<path id="turkey" fill="#FFFFFF" d="M543.5,251.9l-2.2,2.4l-8.2-0.2l-4.9-2.9l-4.8-0.1l-5.5,3.9l-5.2,0.2l-0.5,3h-5.9l-2.3,2.1v1.2
	l1.4,1.2v1.3l-0.6,1.5l0.6,1.3l1.9-0.9l1.9,2l-0.5,1.4l-0.7,1l1,1.2l5.2,1.1l3.6-1.5v-2.2l1.8,0.4l4.2,2.5l4.6-0.7l2-1.9l1.3,0.5
	v2.1h1.8l1.5-2.9l13.4-1.4l5.8-0.7l-1.5-2l0-2.7l1.2-1.4l-4.3-3.4l0.2-2.9h-2.3L543.5,251.9L543.5,251.9z"/>
<path id="yemen" fill="#FFFFFF" d="M556.8,331.9l1.4,4.3v4.2l3.5,3.1l24.4-9.9l0.2-2.7l-3.9-7l-9.8,3.1l-5.6,5.5l-6.5-3.9
	L556.8,331.9L556.8,331.9z"/>
<path id="oman" fill="#FFFFFF" d="M583.2,323.5l7.4-4.3l1.3-6.2l-1.6-0.9l0.7-6.7l1.4-0.8l1.5,2.4l9,4.7v2.6l-10.9,16l-5,0.2
	L583.2,323.5L583.2,323.5z"/>
<path id="emirates" fill="#FFFFFF" d="M578.8,307.6l0.9,3.5l9.9,0.9l0.7-7.1l1.9-1l0.5-2.6l-3.1,0.9l-3.5,5.2L578.8,307.6
	L578.8,307.6z"/>
<path id="qatar" fill="#FFFFFF" d="M577.5,301.7l-0.5,4l1.5,1.2l1.4-0.1l0.5-5l-1.2-0.9L577.5,301.7L577.5,301.7z"/>
<path id="kuwait" fill="#FFFFFF" d="M568.1,289.9l-2.2-1.2l-1.6,1.6l0.2,3.1l3.6,1.4L568.1,289.9L568.1,289.9z"/>
<path id="saudi" fill="#FFFFFF" d="M568.8,295.9l7,9.8l2.3,1.8l1,4.4l10.8,0.9l1.2,0.6l-1.2,5.4l-7.1,4.2l-10.4,3.1l-5.5,5.4
	l-6.6-3.8l-4,3.5l-5.5-9.1l-3.8-1.7l-1.4-2.1v-4.5L531.8,297l-0.5-3h4l4.8-4.2l0.2-2.1l-1.4-1.4l2.8-2.3l5.9,0.4l10,8.4l5.9-0.3
	l0.4,1.5L568.8,295.9L568.8,295.9z"/>
<path id="syria" fill="#FFFFFF" d="M531.5,271.8l-0.3,2.5l2.8,1.2l-0.1,7l2.8-0.1l2.8-2.1l1.1-0.2l6.4-5.1l1.3-7.4l-12.8,1.3l-1.3,3
	L531.5,271.8L531.5,271.8z"/>
<path id="iraq" fill="#FFFFFF" d="M549.1,267.7l-1.6,7.7l-6.5,5.4l0.4,2.5l6.3,0.4l10,8.2l5.6-0.2l0.2-1.9l2.1-2.2l2.9,1.6l0.4-0.4
	l-5.6-7.4l-2.6-0.2l-3.5-4.5l0.7-3.3l1.1-0.1l0.4-1.5l-4.8-5L549.1,267.7L549.1,267.7z"/>
<path id="jordan" fill="#FFFFFF" d="M533.7,283.5l-2.5,8.6l-0.1,1.3h3.9l4.3-3.8l0.1-1.5l-1.8-1.8l3.2-2.6l-0.5-2.4l-0.9,0.2
	l-2.6,1.9L533.7,283.5L533.7,283.5z"/>
<path id="lebanon" fill="#FFFFFF" d="M531,275.1l0.1,2l-0.8,3l2.8,0.2l0.2-4.2L531,275.1L531,275.1z"/>
<path id="israel" fill="#FFFFFF" d="M530.2,280.7l-1.6,5l2,6l2.3-8.8v-1.9L530.2,280.7L530.2,280.7z"/>
<path id="cyprus" fill="#FFFFFF" d="M528,272.5l1.2,0.9l-3.8,3.6l-1.8-0.1l-1.3-0.9l0.2-1.8l2.8-0.2L528,272.5L528,272.5z"/>
<path id="norway" fill="#FFFFFF" d="M500.3,144.8l2-1.5l-0.2-1.7l-1.3-0.7l0.2-2h1.1v-1.1l-4.8-1.3l-7.1,0.7l-0.7,3.1l-1.6-0.6
	l-1.1-1.8l-3.5,0.2l-0.4,3.5l-1.6,0.7l-0.9-1.8l-7.3,5.9l1.5,1.7l-2.8,1.3l-6.2,12.4l-2.2,1.5l0.2,1.1l2.2,1.1l-0.5,2.4l-3.7-0.2
	l-1.1-1.3l-2.4,2.8l-1.5,1.1l-0.4,2.6l-1.3,0.7l-3.3,0.7l-1.6,5.2l1.1,8.5l1.3,3.9l1.5,1.5l3.3-0.2l4.8-4.6l1.8-3.1l0.5,4.6l3.1-5.5
	l0.2-15.5l2.5-1.6l0.8-8.6l7.7-11.1l3.7-1.3l1.6-2l5.5,1.3l2.8,1.7l0.9-4.6l4.6-2.8L500.3,144.8L500.3,144.8z"/>
<path id="britain" fill="#FFFFFF" d="M430.9,191.8l-1.8,2.8l0.7,1.1h4.2v1.9L433,199l0.7,3.9l2.4,4.6l1.8,4.2l2.9,1.1l1.3,2.2
	l-0.2,2l-1.8,1.1l-0.2,0.9l1.3,0.7l-1.1,1.5l-2.6,1.1l-5-0.5l-7.7,3.5l-2.6-1.3l7.3-4.2l-0.9-0.6l-3.9-0.4l2.4-3.5l0.4-3l3.1-0.4
	l-0.5-5.7l-3.7-0.2l-1.1-1.3l0.2-4.2l-2.2,0.2l2.2-7.4l4-3L430.9,191.8L430.9,191.8z"/>
<path id="ulster" fill="#FFFFFF" d="M423.2,204.1l-3.3,0.4l-0.2,3l2.2,1.5l2.4-0.5l0.9-1.7L423.2,204.1L423.2,204.1z"/>
<path id="ireland" fill="#FFFFFF" d="M424.3,209.2l-0.9,6l-8.1,3h-2.6l-1.8-1.3v-1.1l4-2.6l-1.1-2.2l0.2-3.1l3.5,0.2l1.6-3.8
	l-0.2,3.3l2.7,2.1L424.3,209.2L424.3,209.2z"/>
<path id="sweden" fill="#FFFFFF" d="M482.5,147.3l2,1.8h3.7l2,3.9l0.5,6.7l-5,3.5v3.5l-3.5,4.8l-2,0.2l-2.8,4.6l0.2,4.4l4.8,3.5
	l-0.4,2l-1.8,2.8l-2.8,2.4l0.2,8l-4.2,1.5l-1.5,3.1h-2l-1.1-5.5l-4.6-7l3.8-6.3l0.3-15.6l2.6-1.4l0.6-8.9l7.4-10.6L482.5,147.3
	L482.5,147.3z"/>
<path id="finland" fill="#FFFFFF" d="M491.6,159.6l2.1,0.9l1.3,2.4l-1.3,1.7l-6.4,7l-1.1,3.7l1.5,5.4l5,3.7l6.6-3.1l5.3-0.7l5-7.9
	l-3.7-8.7l-3.5-8.3l0.5-5.4l-2.2-0.4l-0.6-3.9l-3-4.8l-3.3,2.3l-1.3,5.3l-3.5-2.1l-4.8-1.2l-1.1,1.3l1.9,1.7l3.4-0.1l2.7,4.4
	L491.6,159.6L491.6,159.6z"/>
<path id="estonia_1_" fill="#FFFFFF" d="M502.9,194l-6.9-1.1l0.1,3.8l6.3,3.9l2.6-0.8L505,197L502.9,194L502.9,194z"/>
<path id="hiumaa" fill="#FFFFFF" d="M491.6,190.3l-1.5-0.1l-0.9,0.9l0.6,1l1.5,0.1l0.8-1.2L491.6,190.3L491.6,190.3z"/>
<path id="saaremaa" fill="#FFFFFF" d="M491.4,194.4l-1.5-0.1l-2.7,3.2v1.5l0.9,0.4l1.8,0.1l2.9-2.4l0.4-0.8L491.4,194.4L491.4,194.4
	z"/>
<path id="lithuania" fill="#FFFFFF" d="M495.6,197.4l-2.1-0.1l-3,2.8H488l0.1,3.5l-1.5,2.8l5.4,0l1.5-0.2l1.5,1.9l3.6-0.1l3.4-4.3
	l-0.2-2.6L495.6,197.4L495.6,197.4z"/>
<path id="belarus" fill="#FFFFFF" d="M495.5,209l1.5,2.5l-0.6,2l0.1,1.6l0.5,1.9l3.1-1.8l3.8,0.1l2.7,1.1h6.9l2-4.8l1.2-1.8v-1.2
	l-4.3-6.1l-3.8-1.5l-3.1-0.4l-2.7,0.9l0.1,2.7l-3.8,4.7L495.5,209L495.5,209z"/>
<path id="poland" fill="#3498DB" d="M496.3,217.4l0.9,1.6l0.2,1.7l-0.7,1.6l-1.6,3.1l-1.4,0.6l-1.8-0.8l-1,0l-2.5,1l-2.9-0.9
	l-4.7-3.3l-4.6-2.5l-1.9-2.8l-0.4-6.6l3.6-3.1l4.7-1.6l1.8-0.2l-0.7,1.4l0.5,0.6l7.9,0.1l1.7-0.1l2.8,4.3l-0.7,1.8l0.3,2.1
	L496.3,217.4L496.3,217.4z"/>
<path id="spain" fill="#FFFFFF" d="M433.2,247.7h-12.7l-2.6-1.2l-1.2,0.1l-1.5,3.1l0.5,3.2l4.9,0.4l0.6,2.1l-2.1,11.9l0.1,2.1
	l3.5,1.9l4,0.3l8-2l3.9-4.9l0.1-5l6.9-6.2l0.4-2.8l-6.3-0.1L433.2,247.7L433.2,247.7z"/>
<path id="portugal" fill="#FFFFFF" d="M415.8,253.9l-0.6,8.6l-1.8,1.6l0.2,1l1.2,2.1l-0.8,2.5l1.3,0.4l3.1-0.4l-0.2-2.5l2-11.6
	l-0.4-1.6L415.8,253.9L415.8,253.9z"/>
<path id="majorca" fill="#FFFFFF" d="M445.9,259.9l-1.6,0.5l0.4,1.4h2.3l1-1.1L445.9,259.9L445.9,259.9z"/>
<path id="sardinia" fill="#FFFFFF" d="M462.4,256.1l-2.6,1.3l0.4,5.2l2.1,0.4l1.6-1.5v-4.9L462.4,256.1L462.4,256.1z"/>
<path id="corsica" fill="#FFFFFF" d="M462.7,249.6l-2,2l-0.2,1.8l1.6,1l0.6-0.1l0.4-2.6L462.7,249.6L462.7,249.6z"/>
<path id="france" fill="#FFFFFF" d="M445.2,221.4l-2.2,0.5l-4.4,4.8l-1.3,0.1l-1.8-1.2l-1.1,0.3l-0.9,2.8l-6.5,0.2l0.2,1.4l4.4,2.9
	l5.1,4.1l-0.1,4.9l-2.7,4.8l5.9,2.9l6,0.2l1.9-2.1l3.8,0.1l1.1,1l3.8-0.3l2-2.5l-2.5-2.9l-0.2-1.9l0.5-2.1l-1.2-1.8l-2.1,0.6
	l-0.3-1.6l4.7-5.2v-3.1l-3.1-1.8l-1.6-0.3L445.2,221.4L445.2,221.4z"/>
<path id="netherlands" fill="#FFFFFF" d="M454.9,211l-4.5,2.2l1,0.9l0.1,2.2l-1-0.2l-1.1-1.6l-2.5,4l3.9,0.8l1.5,1.5l0.8,0l0.5-3.5
	l2.5-1L454.9,211L454.9,211z"/>
<path id="belgium" fill="#FFFFFF" d="M446.4,219.2l-0.6,1.6l6.9,4.5l2,0.5l0.1-2.1l-1.7-1.9h-1.1l-1.5-1.6L446.4,219.2L446.4,219.2z
	"/>
<path id="germany" fill="#FFFFFF" d="M456,210.6l3.6-0.6v-2.5l3-0.5l1.6,1.6l1.7,0.2l2.7-1.2l2.4,0.7l2.1,1.8l0.3,6.9l2.1,2.8
	l-2.8,0.4l-4.6,2.9l0.4,1l4.1,3.9l-0.3,1.9l-3.9,1.9l-3.6,0.1l-0.9,1.8h-1.8l-0.9-1.9l-3.2-0.8l-0.1-3.2l-2.7-1.8l0.3-2.3l-1.8-2.5
	l0.5-3.3l2.5-1.2L456,210.6L456,210.6z"/>
<path id="denmark" fill="#FFFFFF" d="M461.6,194.2l-4.1,4.6l-0.1,3l1.9,4.9l3-0.6l-0.4-4l2-2.3l0-1.8l-1.4-3.7L461.6,194.2
	L461.6,194.2z"/>
<path id="sjlland" fill="#FFFFFF" d="M466.3,202.3l-0.9,0l-1.2,1.1l0.1,1.8l2.9,0.1l0.1-2L466.3,202.3L466.3,202.3z"/>
<path id="gotland" fill="#FFFFFF" d="M483.3,192.9l-2.1,1.7l1.1,2.5l1.9-1.8L483.3,192.9L483.3,192.9z"/>
<path id="switzerland" fill="#FFFFFF" d="M457.7,232.1l-4.4,4.6l0.1,0.5l1.8-0.6l1.6,2.2l2.7-1l1.9,1.5l0.8-0.4l2.3-3.6l-0.6-0.6
	l-2.3-0.1l-1.1-2.3L457.7,232.1L457.7,232.1z"/>
<path id="czech" fill="#FFFFFF" d="M473.3,227.5h3h1.5l2.4,1.7l4.4-3.6l-4.3-3l-4.2-2l-2.9,0.5l-3.9,2.5L473.3,227.5L473.3,227.5z"
	/>
<path id="slovakia" fill="#FFFFFF" d="M480.7,229.8l0.7,0.6l0.1,1l7.6-0.2l5.6-2.4l-0.1-2.5l-1.1,0.5L492,226l-1,0l-2.5,1l-3.4-0.8
	L480.7,229.8L480.7,229.8z"/>
<path id="austria" fill="#FFFFFF" d="M465.5,232.8l-0.6,1.4l0.6,1l2.3-0.5h2l2.1,1.8l4.6-0.8l3.4-2l0.9-1.4l-0.1-1.7l-3-2.3l-4,0
	l-0.3,2.3l-4.3,2.1L465.5,232.8L465.5,232.8z"/>
<path id="hungary" fill="#FFFFFF" d="M481.6,232.3l-1.2,1.8l0.1,2.8l1.9,1l5.7,0.2l7.9-6.7l0-1.5l-0.9-0.4l-5.7,2.6L481.6,232.3
	L481.6,232.3z"/>
<path id="slovenia" fill="#FFFFFF" d="M479.6,234.7l-2.5,1.5l-4.7,1l1,2.7l3.3,0l3.1-2.6L479.6,234.7L479.6,234.7z"/>
<path id="croatia" fill="#FFFFFF" d="M480.4,237.8l-3.5,2.9h-3.6l-0.4,2.5l1.6,0.4l0.8-1.2l1.3,1.1l1,3.6l7.1,3.3l0.7-0.8l-7.2-7.4
	l0.7-1.4l6.8-0.3l0.7-2.2l-4.4,0.1L480.4,237.8L480.4,237.8z"/>
<path id="bosnia" fill="#FFFFFF" d="M479.6,241.6l-0.4,0.6l6.7,6.9l2.5-3.6l-0.1-1.4l-2.1-2.6L479.6,241.6L479.6,241.6z"/>
<path id="italy" fill="#FFFFFF" d="M457.1,239.7l-0.6,1.6l0.2,1.7l2.4,2.8l3.8-0.1l8.3,9.6l5.2,1.5l3.1,2.9l0.7,6.6l1.6-1l1.4-3.6
	l-0.4-2.6l2.4-0.2l0.4-1.5l-6.9-3.3l-6.5-6.4l-2.6-3.8l-0.6-3.6l3.3-0.8l-0.9-2.4l-2-1.7l-1.8-0.1l-2.4,0.7l-2.3,3.2l-1.4,0.9
	l-2.1-1.3L457.1,239.7L457.1,239.7z"/>
<path id="sicily" fill="#FFFFFF" d="M477.3,265.7l-1.5-0.8l-5,0.8l0.2,1.3l4.5,2.2l0.7,0.7l1.2,0.2L477.3,265.7L477.3,265.7z"/>
<path id="malta" fill="#FFFFFF" d="M477.4,273.1l-1.7,0.3l0.1,1.9l1.5,0.5l0.7-0.6L477.4,273.1L477.4,273.1z"/>
<path id="ukraine" fill="#FFFFFF" d="M500.4,215.8l-2.9,1.6l0.7,3.1l-2.7,5.6l0,2.5l1.3,0.8l8.1,0.4l2.3-1.9l2.4,0.8l3.5,4.6
	l-2.5,4.6l3,0.9l4-4.6l2.3,0.4l2.1,1.5l-1.8,2.4l2.5,3.9h2.7l1.4-2.6l2.8-0.6l0.1-2.1l-5.2-0.8l0.2-2.3h5.1l5.5-4.4l2.4-2.1l0.4-6.7
	l-10.8-1l-4.4-6.2l-3.1-1.1l-3.7,0.2L514,217l-7.6,0.1L504,216L500.4,215.8L500.4,215.8z"/>
<path id="moldova" fill="#FFFFFF" d="M505.6,230.4l3.1,4.8l-0.3,2.7l1.1,0l2.6-4.4l-3.2-3.9l-1.8-0.7L505.6,230.4L505.6,230.4z"/>
<path id="romania" fill="#FFFFFF" d="M497,230.3l-0.3,1.5l-5.8,4.8l4.8,7.1l3.1,2.2h5.6l1.8-1.5l2.5-0.3l1.8,1.1l3.3-3.7l-0.6-1.9
	l-3.3-0.9l-2.3-0.1l0.1-3.2l-3-4.7L497,230.3L497,230.3z"/>
<path id="serbia_and_montenegro" fill="#FFFFFF" d="M490.4,237.2l-2,1.5h-1l-0.7,2.1l2.4,2.8l0.2,2.2l-3,4.2l0.4,1.3l1.7,0.3
	l1.4-1.9l0.7,0l1.3,1.2l3.8-1.2l-0.3-5.5L490.4,237.2L490.4,237.2z"/>
<path id="bulgaria" fill="#FFFFFF" d="M496.3,245.1l0.2,5l1.7,3.5l6.3,0.1l2.8-2l2.8-1.1l-0.7-3.2l0.6-1.7l-1.4-0.7l-2,0.2l-1.5,1.5
	l-6.4,0.1L496.3,245.1L496.3,245.1z"/>
<path id="albania" fill="#FFFFFF" d="M488.8,252.4v4.6l1.3,2.5l1-0.1l1.6-3l-1-1.3l-0.4-3.3l-1.3-1.2L488.8,252.4L488.8,252.4z"/>
<path id="macedonia" fill="#FFFFFF" d="M495.8,250.7l-3.4,1.1l0.2,2.9l0.8,1l4-1.9L495.8,250.7L495.8,250.7z"/>
<path id="greece" fill="#FFFFFF" d="M491.5,260.3l-0.1,1.3l4.6,2.3l2.2,0.9l-1.2,1.2l-2.6,0.3l-0.4,1.2l0.9,2l2.9,1.5l1.3,0.1
	l0.2-3.5l1.9-2.3l-5.2-6.1l0.7-2.1l1.2,0l1.8,1.5l1.2-0.6l0.4-2.1l5.4,0l0.2-3.2l-2.3,1.6l-6.6-0.2l-4.3,2.2L491.5,260.3
	L491.5,260.3z"/>
<path id="thrace" fill="#FFFFFF" d="M507.9,252.4l-0.2,3.5l3.1-0.9l1.4-1l-0.4-1.5l-1.5-1.2L507.9,252.4L507.9,252.4z"/>
<path id="crete" fill="#FFFFFF" d="M501.6,273.3l1.6,0.1l0.7,1h2.4l1.6-0.6l0.5,0.6l-1,1.4l-4.6,0.2l-0.8-1.1l-0.9-0.5L501.6,273.3
	L501.6,273.3z"/>
<g>
	<path d="M128.8,198.2c0,0-5.6-7.9-5.6-11.3c0-6.7,5.6-6.7,5.6-6.7s5.7,0.1,5.7,6.7C134.4,190.4,128.8,198.2,128.8,198.2z"/>
	<text transform="matrix(1 0 0 1 126.5701 190.29)" fill="#FFFFFF" font-family="'ProximaNova-Extrabld'" font-size="10">1</text>
</g>
<g>
	<path d="M234.6,239.7c0,0-5.6-7.9-5.6-11.3c0-6.7,5.6-6.7,5.6-6.7s5.7,0.1,5.7,6.7C240.2,231.8,234.6,239.7,234.6,239.7z"/>
	<text transform="matrix(1 0 0 1 231.5749 231.7356)" fill="#FFFFFF" font-family="'ProximaNova-Extrabld'" font-size="10">2</text>
</g>
<g>
	<path d="M222.6,322.8c0,0-5.6-7.9-5.6-11.3c0-6.7,5.6-6.7,5.6-6.7s5.7,0.1,5.7,6.7C228.3,314.9,222.6,322.8,222.6,322.8z"/>
	<text transform="matrix(1 0 0 1 219.6525 314.85)" fill="#FFFFFF" font-family="'ProximaNova-Extrabld'" font-size="10">3</text>
</g>
<g>
	<path d="M227.4,367.7c0,0-5.6-7.9-5.6-11.3c0-6.7,5.6-6.7,5.6-6.7s5.7,0.1,5.7,6.7C233.1,359.9,227.4,367.7,227.4,367.7z"/>
	<text transform="matrix(1 0 0 1 224.3575 359.7706)" fill="#FFFFFF" font-family="'ProximaNova-Extrabld'" font-size="10">4</text>
</g>
<g>
	<path d="M484.3,215.6c0,0-5.6-7.9-5.6-11.3c0-6.7,5.6-6.7,5.6-6.7s5.7,0.1,5.7,6.7C490,207.7,484.3,215.6,484.3,215.6z"/>
	<text transform="matrix(1 0 0 1 481.2652 207.6357)" fill="#FFFFFF" font-family="'ProximaNova-Extrabld'" font-size="10">5</text>
</g>
<g>
	<path d="M255.5,227.8c0,0-5.6-7.9-5.6-11.3c0-6.7,5.6-6.7,5.6-6.7s5.7,0.1,5.7,6.7C261.1,219.9,255.5,227.8,255.5,227.8z"/>
	<text transform="matrix(1 0 0 1 252.4044 219.8163)" fill="#FFFFFF" font-family="'ProximaNova-Extrabld'" font-size="10">6</text>
</g>
<g>
	<path d="M152.1,229.7c0,0-5.6-7.9-5.6-11.3c0-6.7,5.6-6.7,5.6-6.7s5.7,0.1,5.7,6.7C157.8,221.9,152.1,229.7,152.1,229.7z"/>
	<text transform="matrix(1 0 0 1 149.0473 221.3892)" fill="#FFFFFF" font-family="'ProximaNova-Extrabld'" font-size="10">8</text>
</g>
<g>
	<path d="M234.5,259.9c0,0-5.6-7.9-5.6-11.3c0-6.7,5.6-6.7,5.6-6.7s5.7,0.1,5.7,6.7C240.1,252.1,234.5,259.9,234.5,259.9z"/>
	<text transform="matrix(1 0 0 1 231.6924 252.0006)" fill="#FFFFFF" font-family="'ProximaNova-Extrabld'" font-size="10">7</text>
</g>
</svg>
