<?xml version="1.0" encoding="utf-8"?>
<!-- Generator: Adobe Illustrator 18.0.0, SVG Export Plug-In . SVG Version: 6.00 Build 0)  -->
<!DOCTYPE svg PUBLIC "-//W3C//DTD SVG 1.1//EN" "http://www.w3.org/Graphics/SVG/1.1/DTD/svg11.dtd">
<svg version="1.1" id="Layer_1" xmlns="http://www.w3.org/2000/svg" xmlns:xlink="http://www.w3.org/1999/xlink" x="0px" y="0px"
	 viewBox="0 0 100 100" enable-background="new 0 0 100 100" xml:space="preserve">
<path fill="#FFFFFF" d="M76.7,40.5c0-4.8-10.7-7.4-20.9-7.4c-4.2,0-8.6,0.5-12.2,1.3c0.6-1,1-2.4,1.1-4.3c0.2-4.3-1-8.9-3.2-13
	c-2.3-4.3-5.6-7.8-9.2-9.8c-3.6-2-7.4-2.3-10.2-0.8c-2.9,1.6-4.6,4.8-4.9,9c-0.3,4.1,0.9,8.7,3.2,13.1c2,3.6,5,6.8,9.2,9.7
	c1.9,1.4,3.4,2,4.7,2c0.2,0,0.5,0,0.7-0.1c0,0.1,0,0.1,0,0.2L34.9,43l0,43.7c0,0.3,1,8.5,20.7,8.5c19.7,0,21.1-8.1,21.1-8.4l0-43.8
	L76.7,40.5z M75.1,39.8c-0.2,0.1-0.5,0.3-0.7,0.4c-1.7-2.5-8.6-4.1-18.5-4.1c-9.6,0-16.8,1.8-18.6,4.4c-0.3-0.2-0.6-0.3-0.7-0.4
	c0.6-2.7,8.3-5.5,19.3-5.5C66.4,34.6,74,37.2,75.1,39.8z M30.5,37.1c-4-2.8-6.8-5.8-8.7-9.2c-2.2-4.1-3.3-8.4-3.1-12.2
	c0.2-3.7,1.7-6.5,4.1-7.8c1-0.5,2.1-0.8,3.3-0.8c1.7,0,3.6,0.5,5.4,1.6c3.4,1.9,6.4,5.1,8.6,9.2c2.1,3.9,3.2,8.3,3.1,12.3
	c-0.2,3.9-1.4,4.8-4.2,5.8c-1,0.4-1.8,1-2.4,1.6c-0.1,0.1-0.3,0.2-0.4,0.3c-0.7,0.6-1.2,1-1.9,1C33.4,38.8,32.1,38.2,30.5,37.1z
	 M75.2,86.6c-0.1,0.6-2.1,7.1-19.6,7.1c-18.2,0-19.2-7.1-19.2-7.1V78c2.7,1.2,9.5,3.6,19.8,3.6c10.3,0,16.6-2.4,19-3.6L75.2,86.6
	L75.2,86.6z M75.2,76.3c-1.5,0.8-7.9,3.8-19,3.8c-10.9,0-17.9-2.8-19.8-3.8V54c2.7,1.2,9.5,3.6,19.8,3.6c10.3,0,16.6-2.5,19-3.6
	V76.3z M75.2,52.3c-1.5,0.8-7.9,3.8-19,3.8c-10.9,0-17.9-2.8-19.8-3.8V43l0-1.2c2.3,1.3,8,3.5,20.2,3.5c0.5,0,11.8-0.1,18.6-3.9
	l0,1.5V52.3z"/>
<g>
	<path fill="#FFFFFF" d="M35.5,36.8c-4.2,0-9-3.7-12.1-9.4c-4.1-7.5-3.8-15.3,0.6-17.7C24.9,9.3,25.8,9,26.8,9
		c4.2,0,9.2,3.9,12.4,9.8c4,7.4,3.7,14.8-0.7,17.2C37.6,36.5,36.6,36.8,35.5,36.8z M26.8,10.5c-0.8,0-1.5,0.2-2.1,0.5
		c-3.6,1.9-3.6,9.1,0,15.7c2.8,5.1,7.1,8.6,10.8,8.6c0.8,0,1.6-0.2,2.3-0.6c3.6-2,3.7-8.7,0.1-15.2C35,14.2,30.5,10.5,26.8,10.5z"/>
</g>
<g>
	<path fill="#FFFFFF" d="M35.6,33.6c-2.8,0-6.4-3.1-8.8-7.6c-3-5.6-3.2-11.1-0.4-12.7c0.5-0.3,1-0.4,1.6-0.4c2.8,0,6.4,3.1,8.8,7.6
		c1.4,2.6,2.3,5.3,2.4,7.6c0.2,2.5-0.6,4.3-2,5.1C36.7,33.5,36.2,33.6,35.6,33.6z M28,14.4c-0.3,0-0.6,0.1-0.9,0.2
		c-1.8,1-1.8,5.6,1,10.6c2.4,4.5,5.6,6.8,7.5,6.8c0.3,0,0.6-0.1,0.9-0.2c0.9-0.5,1.3-1.8,1.2-3.7c-0.1-2.1-0.9-4.6-2.2-6.9
		C33,16.8,29.9,14.4,28,14.4z"/>
</g>
</svg>
