<?xml version="1.0" encoding="utf-8"?>
<!-- Generator: Adobe Illustrator 18.0.0, SVG Export Plug-In . SVG Version: 6.00 Build 0)  -->
<!DOCTYPE svg PUBLIC "-//W3C//DTD SVG 1.1//EN" "http://www.w3.org/Graphics/SVG/1.1/DTD/svg11.dtd">
<svg version="1.1" id="Layer_1" xmlns="http://www.w3.org/2000/svg" xmlns:xlink="http://www.w3.org/1999/xlink" x="0px" y="0px"
	 viewBox="0 0 88.6 100" enable-background="new 0 0 88.6 100" xml:space="preserve">
<path id="maple_leaf_2_" fill="#FFFFFF" d="M44.3,0l-7.7,15.1c-0.9,1.6-2.5,1.5-4,0.6l-5.6-3l4.2,23.2c0.9,4.2-1.9,4.2-3.3,2.4
	L18,26.8l-1.6,5.8c-0.2,0.8-1,1.6-2.2,1.4L1.9,31.2l3.2,12.3c0.7,2.7,1.2,3.9-0.7,4.6L0,50.3l21.3,18.1c0.8,0.7,1.3,1.9,1,3
	l-1.9,6.4c7.3-0.9,13.9-1.7,21.2-2.6c0.7,0,1.7,0.6,1.7,1.4l-1,23.4h3.6l-0.6-23.3c0-0.8,1-1.4,1.6-1.4c7.3,0.9,13.9,1.7,21.2,2.6
	l-1.9-6.4c-0.3-1.1,0.1-2.3,1-3l21.3-18.1l-4.4-2.2c-1.9-0.7-1.4-1.9-0.7-4.6l3.2-12.3l-12.4,2.7c-1.2,0.2-2-0.6-2.2-1.4l-1.6-5.8
	l-9.8,11.4c-1.4,1.8-4.2,1.8-3.3-2.4l4.2-23.2l-5.6,3c-1.6,0.9-3.1,1.1-4-0.6L44.3,0z"/>
</svg>
