<?xml version="1.0" encoding="utf-8"?>
<!-- Generator: Adobe Illustrator 18.0.0, SVG Export Plug-In . SVG Version: 6.00 Build 0)  -->
<!DOCTYPE svg PUBLIC "-//W3C//DTD SVG 1.1//EN" "http://www.w3.org/Graphics/SVG/1.1/DTD/svg11.dtd">
<svg version="1.1" id="Layer_1" xmlns="http://www.w3.org/2000/svg" xmlns:xlink="http://www.w3.org/1999/xlink" x="0px" y="0px"
	 viewBox="0 0 100 100" enable-background="new 0 0 100 100" xml:space="preserve">
<path fill="#FFFFFF" d="M75.4,93.8c-0.1-0.5-0.7-1-1.6-1.5c-0.4-2.3-9.2-4.2-20.6-4.5V52.2h1.1v-6.9h-1.6V40
	c2.4,1.6,5.9,1.1,8.4-1.3l7.4-7.2c2.8-2.7,3.2-6.9,0.8-9.3l-2.6-2.7L59,27l-2.1-2.2l7.7-7.5l-2.1-2.2l-7.7,7.5l-2.1-2.2l7.7-7.5
	l-2.1-2.2l-7.7,7.5l-2.1-2.2l7.7-7.5l-2.1-2.2L46.3,14l-2.1-2.2l7.7-7.5l-2.6-2.7c-2.3-2.4-6.5-2.1-9.3,0.6l-7.4,7.2
	c-2.8,2.7-3.2,6.9-0.8,9.3l2.6,2.6l7.7-7.6l2.1,2.2l-7.7,7.6l2.1,2.2l7.7-7.6l2.1,2.2l-7.7,7.6l2.1,2.2l4.6-4.5v4.2l-2.5,2.5
	l2.1,2.2l0.4-0.4v11.2h-1.6v6.9h1.1v35.6c-11.4,0.3-20.2,2.2-20.6,4.5c-1,0.5-1.5,1-1.6,1.5c-1,0.5-1.6,1-1.6,1.6
	c0,2.6,12.1,4.7,27,4.7c14.9,0,27-2.1,27-4.7C77,94.8,76.5,94.2,75.4,93.8z M52.6,28.9l2.1-2.1l2.1,2.2l-4.2,4.1
	C52.6,33.2,52.6,28.9,52.6,28.9z M50.5,22.5L50.5,22.5L50.5,22.5L50.5,22.5z"/>
</svg>
