<?xml version="1.0" encoding="utf-8"?>
<!-- Generator: Adobe Illustrator 18.0.0, SVG Export Plug-In . SVG Version: 6.00 Build 0)  -->
<!DOCTYPE svg PUBLIC "-//W3C//DTD SVG 1.1//EN" "http://www.w3.org/Graphics/SVG/1.1/DTD/svg11.dtd">
<svg version="1.1" id="Layer_1" xmlns="http://www.w3.org/2000/svg" xmlns:xlink="http://www.w3.org/1999/xlink" x="0px" y="0px"
	 viewBox="0 0 100 100" enable-background="new 0 0 100 100" xml:space="preserve">
<g>
	<path fill="#FFFFFF" stroke="#FFFFFF" stroke-miterlimit="10" d="M45.3,41.8l10.6,4.8c0.1-0.8,0.5-1.5,1-2.2l-10.6-4.8
		C46.1,40.5,45.8,41.2,45.3,41.8z"/>
	<path fill="#FFFFFF" stroke="#FFFFFF" stroke-miterlimit="10" d="M23.3,29.7L6.3,32c0.2,0.5,0.4,1.2,0.4,1.8c0,0.2,0,0.4-0.1,0.6
		l17-2.3c-0.2-0.5-0.4-1.1-0.4-1.8C23.2,30.1,23.3,29.9,23.3,29.7z"/>
	<path fill="#FFFFFF" stroke="#FFFFFF" stroke-miterlimit="10" d="M64.1,59.4c0.1,0,0.1,0,0.2,0l-1.8-8c-0.6,0.3-1.3,0.5-2.1,0.5
		c-0.1,0-0.1,0-0.2,0l1.8,8C62.6,59.6,63.3,59.4,64.1,59.4z"/>
	<path fill="#FFFFFF" stroke="#FFFFFF" stroke-miterlimit="10" d="M30.9,33.6l6.6,4.1c0.2-0.8,0.7-1.5,1.2-2l-6.6-4.1
		C31.9,32.3,31.4,33,30.9,33.6z"/>
	<path fill="#FFFFFF" stroke="#FFFFFF" stroke-miterlimit="10" d="M64.8,48.3l28.8-1.6c-0.2-0.5-0.3-0.9-0.3-1.5
		c0-0.3,0-0.6,0.1-0.9l-28.8,1.6c0.2,0.5,0.3,0.9,0.3,1.5C64.9,47.7,64.9,48,64.8,48.3z"/>
	<path fill="#FFFFFF" stroke="#FFFFFF" stroke-miterlimit="10" d="M68.4,62.7c0.1,0.4,0.2,0.8,0.2,1.2c0,0.4-0.1,0.8-0.2,1.2h20.8
		c-0.1-0.4-0.2-0.8-0.2-1.2c0-0.4,0.1-0.8,0.2-1.2C89.2,62.7,68.4,62.7,68.4,62.7z"/>
	<path fill="#FFFFFF" stroke="#FFFFFF" stroke-miterlimit="10" d="M95.7,49.2l-2.3,10.2c0.1,0,0.1,0,0.2,0c0.8,0,1.5,0.2,2.1,0.6
		L98,49.7c-0.1,0-0.1,0-0.2,0C97.1,49.7,96.4,49.5,95.7,49.2z"/>
	<path fill="#FFFFFF" stroke="#FFFFFF" stroke-miterlimit="10" d="M27.8,28.1c-0.9,0-1.6,0.5-1.9,1.2c-0.1,0.3-0.2,0.6-0.2,0.9
		c0,0.5,0.2,1,0.5,1.4c0.4,0.4,1,0.7,1.6,0.7c0.3,0,0.6-0.1,0.9-0.2c0.7-0.3,1.3-1.1,1.3-2c0,0,0,0,0-0.1
		C29.9,29,28.9,28.1,27.8,28.1z"/>
	<path fill="#FFFFFF" stroke="#FFFFFF" stroke-miterlimit="10" d="M2.2,31.6c-1.2,0-2.2,1-2.2,2.2c0,1.2,1,2.2,2.2,2.2
		c0.9,0,1.6-0.5,1.9-1.2c0.1-0.3,0.2-0.6,0.2-0.9c0-0.6-0.2-1.1-0.6-1.4C3.4,31.9,2.8,31.6,2.2,31.6z"/>
	<path fill="#FFFFFF" stroke="#FFFFFF" stroke-miterlimit="10" d="M41.8,36.8c-0.3,0-0.6,0.1-0.9,0.2c-0.7,0.3-1.3,1.1-1.3,2
		c0,0,0,0,0,0.1c0,1.2,1,2.1,2.2,2.1c0.4,0,0.8-0.1,1.1-0.3c0.6-0.4,1-1.1,1-1.8c0-0.1,0-0.2,0-0.3C43.7,37.6,42.9,36.8,41.8,36.8z"
		/>
	<path fill="#FFFFFF" stroke="#FFFFFF" stroke-miterlimit="10" d="M61.9,48.9c0.1-0.1,0.2-0.3,0.3-0.4c0.2-0.3,0.3-0.7,0.3-1.1
		c0-0.5-0.2-0.9-0.5-1.3c-0.4-0.5-1-0.8-1.7-0.8c-0.4,0-0.8,0.1-1.1,0.3c-0.6,0.4-1,1.1-1,1.8c0,0.1,0,0.2,0,0.3
		c0.1,0.8,0.6,1.4,1.4,1.7c0.2,0.1,0.5,0.1,0.8,0.1C61,49.5,61.5,49.3,61.9,48.9z"/>
	<path fill="#FFFFFF" stroke="#FFFFFF" stroke-miterlimit="10" d="M64.8,61.9c-0.2-0.1-0.5-0.1-0.8-0.1c-0.6,0-1.2,0.3-1.5,0.7
		c-0.4,0.4-0.6,0.9-0.6,1.5c0,1.2,1,2.2,2.2,2.2c0.8,0,1.4-0.4,1.8-1c0.2-0.3,0.4-0.7,0.4-1.2c0-0.4-0.1-0.8-0.4-1.2
		C65.6,62.3,65.3,62,64.8,61.9z"/>
	<path fill="#FFFFFF" stroke="#FFFFFF" stroke-miterlimit="10" d="M93.6,61.7c-0.3,0-0.5,0.1-0.7,0.1c-0.4,0.2-0.8,0.5-1.1,0.8
		c-0.2,0.3-0.4,0.8-0.4,1.2c0,0.4,0.1,0.8,0.4,1.2c0.4,0.6,1,1,1.8,1c1.2,0,2.2-1,2.2-2.2c0-0.6-0.2-1.1-0.6-1.5
		C94.7,62,94.2,61.7,93.6,61.7z"/>
	<path fill="#FFFFFF" stroke="#FFFFFF" stroke-miterlimit="10" d="M97.8,43c-0.8,0-1.5,0.4-1.9,1.1c-0.2,0.3-0.3,0.7-0.3,1.1
		c0,0.5,0.2,0.9,0.5,1.3c0.1,0.1,0.1,0.1,0.1,0.2c0.4,0.4,0.9,0.7,1.6,0.7c0.3,0,0.5-0.1,0.8-0.1c0.8-0.3,1.4-1.1,1.4-2
		C100,44,99,43,97.8,43z"/>
</g>
</svg>
