<?xml version="1.0" encoding="utf-8"?>
<!-- Generator: Adobe Illustrator 18.0.0, SVG Export Plug-In . SVG Version: 6.00 Build 0)  -->
<!DOCTYPE svg PUBLIC "-//W3C//DTD SVG 1.1//EN" "http://www.w3.org/Graphics/SVG/1.1/DTD/svg11.dtd">
<svg version="1.1" id="Your_Icon" xmlns="http://www.w3.org/2000/svg" xmlns:xlink="http://www.w3.org/1999/xlink" x="0px" y="0px"
	 viewBox="0 0 95.1 56" enable-background="new 0 0 95.1 56" xml:space="preserve">
<path fill="#FFFFFF" d="M25.7,0c2.4,0,4.7,0,7.1,0c10.7,0.1,21.6,0,32.5,0c3.6,0,7.1,0,10.1,0.8c5.7,1.5,10.3,4.8,13.6,9
	c3.4,4.3,5.7,9.7,6.1,17.3c0,0.4,0,0.8,0,1.1c-0.4,8.9-3.5,15-7.9,19.5C82.8,52.3,77,55.5,69.2,56c-1.3,0-2.6,0-3.9,0c0,0,0,0-0.1,0
	c-11.9-0.1-23.6,0-35.3,0c-3.1,0-5.9,0-8.4-0.4c-2.5-0.5-4.7-1.3-6.8-2.3c-4-2-7.2-4.9-9.8-8.7c-2.6-3.8-4.3-8.3-4.8-14.3
	c-0.5-6.2,1.1-11.9,3.2-15.9c2.2-4,5.2-7.3,8.8-9.8C15.8,2,20.3,0.4,25.7,0z M23.3,5.6c-5.5,1.1-9.6,4-12.6,7.8
	C8.1,16.5,6.1,20,5.3,25C4.5,30.5,6.1,35.5,8,39c1,1.8,2.1,3.6,3.4,4.9c4.1,4.2,9.2,7.2,17.5,6.8c2.6-0.1,5.3,0,7.8,0
	c10.3,0,21,0,31.4,0c2.5,0,4.8-0.5,6.7-1.2c5.7-2.1,10.2-6.5,12.8-12c1.8-3.6,2.9-9.1,1.7-14.4c-1-4.5-3.2-8.1-5.8-11
	c-2.6-2.9-6-5.1-10.1-6.2c-2.1-0.5-4.5-0.6-7.3-0.6c-10.4,0-21,0-31.4,0c-2.6,0-5.4-0.1-7.9,0C25.6,5.4,24.4,5.4,23.3,5.6z"/>
<path fill="#FFFFFF" d="M27.9,10.2c2.1-0.1,4.5,0,6.7,0c8.9,0,18,0,27,0c4.5,0,9-0.3,12.6,0.9c5,1.7,8.8,5.6,10.4,11
	c0.6,1.9,1,4.3,0.8,6.5c-0.1,2.3-0.5,4.4-1.1,6.2c-1.3,3.6-3.4,6.3-6.1,8.2c-2.8,2-6.2,2.8-10.9,2.8c-11.2,0-22.4-0.1-33.7-0.1
	c-4.4,0-9.2,0.3-12.6-0.9c-5-1.7-8.7-5.5-10.4-11c-0.6-1.9-1-4.2-0.9-6.6c0.3-7,3.2-11.6,7.3-14.4c1.4-1,3-1.8,4.7-2.2
	C23.5,10.3,25.6,10.3,27.9,10.2z M26.6,15.1c-3.7,0-6.2,1.3-8.2,3.3c-1.9,1.9-3.5,4.6-3.9,8.1c-0.5,3.9,1,7.3,2.5,9.4
	c1.7,2.4,3.8,4.1,7,4.8c1.6,0.3,3.4,0.3,5.3,0.3c13.1,0,26.4,0,39.3,0c3.7,0,6.2-1.4,8.2-3.3c2-1.9,3.4-4.6,3.9-8.1
	c0.5-3.8-0.9-7.3-2.5-9.4c-1.7-2.3-3.9-4.1-7-4.8C69.7,15,67.8,15,66,15.1c-1.9,0.1-3.8,0-5.6,0c-9.3,0-18.8,0-28.1,0
	C30.4,15.1,28.4,15,26.6,15.1C26.6,15.1,26.6,15.1,26.6,15.1z"/>
<path fill="#FFFFFF" d="M53.5,38.1h-7.3l0.4,1.7c0,0,0,0.1,0,0.1c0,0.3-0.1,0.4-0.4,0.4c-0.1,0-0.1,0-0.2-0.1l-2.3-1.5l-2.3-1.5
	l2.4-1.6l2.3-1.5c0.1,0,0.1-0.1,0.2-0.1c0.2,0,0.4,0.1,0.4,0.4c0,0,0,0.1,0,0.1l-0.4,1.7h7.2C53.5,36.2,53.5,38.1,53.5,38.1z"/>
<path fill="#FFFFFF" d="M41.5,18.5h7.2l-0.4-1.6c0,0,0-0.1,0-0.1c0-0.3,0.1-0.4,0.4-0.4c0.1,0,0.1,0,0.2,0.1l2.2,1.5l2.4,1.6
	L51.2,21l-2.3,1.5c-0.1,0-0.1,0.1-0.2,0.1c-0.3,0-0.4-0.1-0.4-0.4c0,0,0-0.1,0-0.1l0.4-1.7h-7.3L41.5,18.5L41.5,18.5z"/>
<g>
	<path fill="#FFFFFF" d="M75.3,22c2.2,1.9,3,4.8,2.5,7.4c0.6-0.1,1.2-0.3,1.7-0.4c0,0,0.1,0,0.1,0c0.3,0,0.4,0.1,0.4,0.4
		c0,0.1-0.1,0.2-0.1,0.2c-0.7,0.8-1.5,1.6-2.4,2.3c-1,0.8-2.1,1.5-3.4,2.1c0.2-0.6,0.3-1.3,0.2-2.1c-0.1-0.8-0.2-1.6-0.6-2.4
		c0-0.1,0-0.1,0-0.2c0.1-0.3,0.2-0.4,0.5-0.4c0,0,0.1,0,0.1,0c0.5,0.2,1.1,0.4,1.6,0.5c0.5-2.6-0.3-5.5-2.5-7.5
		C74,22,74.7,22,75.3,22z"/>
</g>
<g>
	<path fill="#FFFFFF" d="M21.6,22c-2.2,2-3,4.8-2.5,7.5c0.5-0.2,1-0.4,1.6-0.5c0,0,0.1,0,0.1,0c0.3,0,0.5,0.1,0.5,0.4
		c0,0.1,0,0.1,0,0.2c-0.3,0.8-0.5,1.6-0.6,2.4c-0.1,0.8,0,1.5,0.2,2.1c-1.3-0.6-2.4-1.3-3.4-2.1c-0.9-0.7-1.7-1.5-2.4-2.3
		c-0.1-0.1-0.1-0.1-0.1-0.2c0-0.3,0.1-0.4,0.4-0.4c0,0,0.1,0,0.1,0c0.6,0.1,1.1,0.3,1.7,0.4c-0.5-2.6,0.3-5.5,2.5-7.4
		C20.3,22,21,22,21.6,22z"/>
</g>
</svg>
